<svg id="Layer_1" data-name="Layer 1" xmlns="http://www.w3.org/2000/svg" xmlns:xlink="http://www.w3.org/1999/xlink" viewBox="0 0 768 127.22"><defs><style>.cls-1{fill:none;}.cls-2{clip-path:url(#clip-path);}.cls-3{fill:url(#linear-gradient);}.cls-4{clip-path:url(#clip-path-2);}.cls-5{fill:url(#linear-gradient-2);}</style><clipPath id="clip-path"><path class="cls-1" d="M95.34,89.32a54.13,54.13,0,0,1-82.36,0Zm5.74-8.12H7.24A53.59,53.59,0,0,1,1.38,66.28l15,0H18.1c5.2,0,10.55-.13,15.87-1.54,8.52-2.26,15.68-6.94,22.61-11.46l.16-.1a20,20,0,0,1,5-2.63,27.6,27.6,0,0,1,7.82-.83h38.56c.11,1.45.19,2.91.19,4.39A53.87,53.87,0,0,1,101.08,81.2ZM89,66a9.5,9.5,0,1,0-9.5,9.5A9.49,9.49,0,0,0,89,66Zm6.34-47A54.13,54.13,0,0,0,13,19ZM0,54.16c0,1.35.07,2.68.16,4l16.2.05c5.22,0,10.64,0,15.53-1.27,7.25-1.92,13.57-6,20.26-10.41l.15-.1a27.42,27.42,0,0,1,7.19-3.63,36.55,36.55,0,0,1,10.1-1.15h37.26a53.61,53.61,0,0,0-5.77-14.53H7.24A53.87,53.87,0,0,0,0,54.16Z"/></clipPath><linearGradient id="linear-gradient" x1="313.57" y1="164.22" x2="454.65" y2="164.22" gradientTransform="translate(-270.31 -111.72) scale(0.85 1)" gradientUnits="userSpaceOnUse"><stop offset="0.02" stop-color="#5900e9"/><stop offset="0.24" stop-color="#6647ff"/><stop offset="0.73" stop-color="#00dab5"/><stop offset="0.78" stop-color="#3ce3b5"/><stop offset="0.85" stop-color="#8eefb5"/><stop offset="0.92" stop-color="#cbf7b5"/><stop offset="0.96" stop-color="#f1fdb5"/><stop offset="0.99" stop-color="#ffffb5"/></linearGradient><clipPath id="clip-path-2"><path class="cls-1" d="M1139.59,249.47a151.16,151.16,0,0,1-230,0Zm16-22.68H893.53a150.51,150.51,0,0,1-16.37-41.66l41.78.12h4.92c14.53,0,29.46-.37,44.34-4.31,23.77-6.3,43.79-19.36,63.15-32l.43-.28c4.75-3.1,9.4-6,14-7.33,7.24-2.1,14.74-2.37,21.84-2.33h107.69c.32,4.05.53,8.13.53,12.26A150.51,150.51,0,0,1,1155.62,226.79Zm-33.74-42.42a26.53,26.53,0,1,0-26.52,26.53A26.52,26.52,0,0,0,1121.88,184.37Zm17.71-131.3a151.16,151.16,0,0,0-230,0Zm-266.28,98.2c0,3.76.18,7.48.45,11.17l45.24.13c14.59,0,29.71.08,43.39-3.54,20.24-5.37,37.89-16.88,56.57-29.07l.43-.28c6-3.91,12.47-7.92,20.07-10.13,10-2.9,19.9-3.17,28.21-3.22h104.07a149.89,149.89,0,0,0-16.12-40.58H893.53A150.48,150.48,0,0,0,873.31,151.27Z"/></clipPath><linearGradient id="linear-gradient-2" x1="919.5" y1="918.82" x2="1313.56" y2="918.82" gradientTransform="translate(81.25 -772.19) scale(0.85 1)" xlink:href="#linear-gradient"/></defs><g class="cls-2"><rect class="cls-3" x="-4.24" y="-19.86" width="119.72" height="144.73" transform="translate(-20.83 54.71) rotate(-45)"/></g><path d="M197.76,68.64a26.37,26.37,0,0,1-1.48,9.26,13.94,13.94,0,0,1-3.9,5.93,16.91,16.91,0,0,1-5,3,15.09,15.09,0,0,1-5.25,1,14.17,14.17,0,0,1-5.87-1.26,16,16,0,0,1-5.14-3.8,17.8,17.8,0,0,1-3.74-6.93A34,34,0,0,1,166,65.62V65l-13.63,3.26v.39c0,9.26,2.66,16.86,7.93,22.6s12.62,8.67,21.85,8.67S198.83,97,204,91.36s7.84-13.65,7.84-23.76V9H197.76Z"/><path d="M266.09,67.84a22.56,22.56,0,0,1-1.66,8.78,17.53,17.53,0,0,1-4.28,6.3,19.75,19.75,0,0,1-5.77,3.64,16.74,16.74,0,0,1-6.23,1.26A13,13,0,0,1,238.43,84c-2.47-2.54-3.72-6.86-3.72-12.82V35.29H221.64V72.16c0,9.29,2.18,16.32,6.48,20.87s10.45,6.88,18.24,6.88c8,0,14.66-3.46,19.73-10.28v9.29h13.08V35.29H266.09Z"/><path d="M321.88,34.3a25,25,0,0,0-12,3A23.22,23.22,0,0,0,302,44V35.29H288.89v91.93H302V90a22.55,22.55,0,0,0,7.77,6.86,25,25,0,0,0,12.08,3,26.19,26.19,0,0,0,20.35-9.42c5.48-6.23,8.26-14.1,8.26-23.39S347.71,50,342.23,43.72A26.19,26.19,0,0,0,321.88,34.3Zm15.53,32.8a22.42,22.42,0,0,1-5,14.7,15.82,15.82,0,0,1-12.69,6c-4.8,0-9-2.06-12.45-6.12A21.86,21.86,0,0,1,302,67.1a21.85,21.85,0,0,1,5.24-14.59c3.46-4.06,7.65-6.12,12.45-6.12a15.82,15.82,0,0,1,12.69,6A22.41,22.41,0,0,1,337.41,67.1Z"/><path d="M481.39,45.25a27.41,27.41,0,0,0-6.75-6.19,28.83,28.83,0,0,0-8.1-3.63,33.43,33.43,0,0,0-8.7-1.13c-9.34,0-17,3.1-22.89,9.22s-8.8,14-8.8,23.58a36.26,36.26,0,0,0,3.72,16.5A29,29,0,0,0,441,95.46a32.64,32.64,0,0,0,17.12,4.45,33.19,33.19,0,0,0,9.36-1.29,28.3,28.3,0,0,0,7.4-3.26,29.46,29.46,0,0,0,5.59-4.74,31.7,31.7,0,0,0,4-5.32,41.68,41.68,0,0,0,2.62-5.37l.21-.53-12.49-3.27-.17.39a20.65,20.65,0,0,1-6.38,8.16,16,16,0,0,1-9.93,3.14c-5.48,0-10-1.64-13.41-4.86a18.65,18.65,0,0,1-5.77-11.85h48.15l.06-.41a28,28,0,0,0,.38-4.47A40.46,40.46,0,0,0,486,54.31,29.29,29.29,0,0,0,481.39,45.25ZM439.92,60.07c2.39-9.4,8.62-14.17,18.54-14.17a15.38,15.38,0,0,1,11,4.12,15.78,15.78,0,0,1,4.82,10Z"/><path d="M620.78,21.48a41,41,0,0,0-13.94-9.83,46.63,46.63,0,0,0-36,0A40.68,40.68,0,0,0,557,21.48a45.44,45.44,0,0,0-8.83,14.62,52,52,0,0,0,0,35.74A45.44,45.44,0,0,0,557,86.46a40.58,40.58,0,0,0,13.91,9.83,46.51,46.51,0,0,0,36,0,41,41,0,0,0,13.94-9.83,45.16,45.16,0,0,0,8.86-14.62,52,52,0,0,0,0-35.74A45.16,45.16,0,0,0,620.78,21.48ZM588.85,87.82A27.52,27.52,0,0,1,573.4,83.3a30,30,0,0,1-10.58-12.22A38.85,38.85,0,0,1,559.07,54a38.85,38.85,0,0,1,3.75-17.11A30,30,0,0,1,573.4,24.64a28.77,28.77,0,0,1,30.93,0,30,30,0,0,1,10.61,12.22A38.85,38.85,0,0,1,618.69,54a38.82,38.82,0,0,1-3.75,17.11A29.89,29.89,0,0,1,604.33,83.3,27.67,27.67,0,0,1,588.85,87.82Z"/><path d="M675,34.3A25.6,25.6,0,0,0,667,35.56a22.45,22.45,0,0,0-6.49,3.28,37.13,37.13,0,0,0-4.28,3.69c-.68.71-1.31,1.41-1.86,2.11V35.29H641.19V98.92h13.14V66.36A22.51,22.51,0,0,1,656,57.59a17.19,17.19,0,0,1,4.28-6.3A19.75,19.75,0,0,1,666,47.65a16.54,16.54,0,0,1,6.23-1.26A12.85,12.85,0,0,1,682,50.24c2.44,2.57,3.68,6.89,3.68,12.86V98.92h13.14V62.05C698.78,43.64,690.8,34.3,675,34.3Z"/><path d="M767.62,70.7a28,28,0,0,0,.38-4.47,40.46,40.46,0,0,0-1.78-11.92,29.07,29.07,0,0,0-4.58-9.06,27.41,27.41,0,0,0-6.75-6.19,28.83,28.83,0,0,0-8.1-3.63,33.43,33.43,0,0,0-8.7-1.13c-9.34,0-17,3.1-22.89,9.22s-8.8,14-8.8,23.58a36.26,36.26,0,0,0,3.72,16.5,29,29,0,0,0,11.1,11.86,32.64,32.64,0,0,0,17.12,4.45,33.19,33.19,0,0,0,9.36-1.29,28.3,28.3,0,0,0,7.4-3.26,29.46,29.46,0,0,0,5.59-4.74,31.84,31.84,0,0,0,4-5.32,41.68,41.68,0,0,0,2.62-5.37l.21-.53-12.49-3.27-.17.39a20.65,20.65,0,0,1-6.38,8.16,16,16,0,0,1-9.93,3.14c-5.48,0-10-1.64-13.41-4.86a18.65,18.65,0,0,1-5.77-11.85h48.15ZM720.17,60.07c2.39-9.4,8.62-14.17,18.54-14.17a15.38,15.38,0,0,1,11,4.12,15.78,15.78,0,0,1,4.82,10Z"/><path d="M370.1,39.44h0a19.87,19.87,0,0,1-11.27,0l-.89-.32V99.37h13V39.19Z"/><path d="M364.58,12.4a8.41,8.41,0,0,0-6.27,2.5,8.59,8.59,0,0,0-2.43,6.2,8.68,8.68,0,0,0,2.42,6.23,9,9,0,0,0,12.56,0,8.67,8.67,0,0,0,2.43-6.23,8.59,8.59,0,0,0-2.43-6.2A8.42,8.42,0,0,0,364.58,12.4Z"/><path d="M404,17.42H392.22v.25c0,17.48-11.8,20.74-13.17,21.06l-.37.09v8.8h11.68V77.08a34.59,34.59,0,0,0,1.29,10,19.71,19.71,0,0,0,3.36,6.8,15.63,15.63,0,0,0,5.14,4.06,21.21,21.21,0,0,0,6.07,2,43.3,43.3,0,0,0,15.89-.54l.39-.09V86.7l-.32.1c-.09,0-9.66,2.79-14.85-1.09-2.2-1.65-3.32-4.28-3.32-7.84V47.62H422.5V35.91H404Z"/><path d="M526,35.3a26.18,26.18,0,0,0-11.23,5A19.29,19.29,0,0,0,509,47.07V35.29H495.84V98.92H509V67a20.77,20.77,0,0,1,1.51-8,16.09,16.09,0,0,1,4.15-6,20,20,0,0,1,6.11-3.7,18.75,18.75,0,0,1,6.79-1.2h.66a26,26,0,0,1,8.17,1.63l.55.2.08-.39a58.2,58.2,0,0,1,2.64-13.77l.08-.24-.8-.25A33.73,33.73,0,0,0,526,35.3Z"/><g class="cls-4"><rect class="cls-5" x="861.48" y="-55.48" width="334.37" height="404.23" transform="translate(197.6 770.32) rotate(-45)"/></g></svg>