<?xml version="1.0" encoding="utf-8"?>
<!-- Generator: Adobe Illustrator 24.1.2, SVG Export Plug-In . SVG Version: 6.00 Build 0)  -->
<svg version="1.1" id="Layer_1" xmlns="http://www.w3.org/2000/svg" xmlns:xlink="http://www.w3.org/1999/xlink" x="0px" y="0px"
	 viewBox="0 0 714.8 158.1" style="enable-background:new 0 0 714.8 158.1;" xml:space="preserve">
<style type="text/css">
	.st0{fill:url(#SVGID_1_);}
</style>
<linearGradient id="SVGID_1_" gradientUnits="userSpaceOnUse" x1="23.1336" y1="23.2148" x2="134.9495" y2="135.0307" gradientTransform="matrix(1 0 0 -1 0 158.1816)">
	<stop  offset="0" style="stop-color:#00062A"/>
	<stop  offset="0.5" style="stop-color:#2ACCFF"/>
	<stop  offset="1" style="stop-color:#D8EC13"/>
</linearGradient>
<path class="st0" d="M78.7,9.1c1.3,0,2.4-1.1,2.4-2.4S80,4.4,78.7,4.4s-2.4,1.1-2.4,2.4l0,0C76.4,8.1,77.4,9.1,78.7,9.1z M71.3,2.4
	c0.7,0,1.2-0.5,1.2-1.2S72,0,71.3,0c-0.7,0-1.2,0.5-1.2,1.2S70.6,2.4,71.3,2.4z M65.1,10.5c1.3-0.3,2.1-1.5,1.9-2.8
	c-0.3-1.3-1.5-2.1-2.8-1.9c-1.3,0.3-2.1,1.5-1.9,2.8c0,0,0,0,0,0C62.6,10,63.8,10.8,65.1,10.5z M56.5,5.4c0.7-0.1,1.1-0.8,1-1.4
	c-0.1-0.7-0.8-1.1-1.4-1c-0.7,0.1-1.1,0.8-1,1.4c0,0,0,0,0,0C55.2,5.1,55.8,5.6,56.5,5.4z M52,14.6c1.2-0.5,1.8-1.9,1.3-3.1
	c-0.5-1.2-1.9-1.8-3.1-1.3c-1.2,0.5-1.8,1.9-1.3,3.1C49.4,14.5,50.8,15.1,52,14.6C52,14.6,52,14.6,52,14.6z M42.6,11.2
	c0.6-0.3,0.9-1,0.7-1.6C43,9,42.2,8.7,41.6,9c-0.6,0.3-0.9,1-0.7,1.6C41.2,11.2,41.9,11.5,42.6,11.2C42.6,11.3,42.6,11.3,42.6,11.2z
	 M39.9,21.1c1.1-0.7,1.4-2.2,0.7-3.3c-0.7-1.1-2.2-1.4-3.3-0.7c-1.1,0.7-1.4,2.2-0.7,3.3c0,0,0,0,0,0C37.4,21.5,38.8,21.8,39.9,21.1
	z M30,19.7c0.6-0.4,0.7-1.1,0.3-1.7c-0.4-0.6-1.1-0.7-1.7-0.3c-0.6,0.4-0.7,1.1-0.3,1.7c0,0,0,0,0,0C28.7,19.9,29.5,20,30,19.7z
	 M29.4,29.8c0.9-0.9,0.9-2.4,0-3.3c-0.9-0.9-2.4-0.9-3.3,0c-0.9,0.9-0.9,2.4,0,3.3C26.9,30.8,28.4,30.8,29.4,29.8
	C29.4,29.8,29.4,29.8,29.4,29.8z M19.4,30.4c0.5-0.5,0.5-1.2,0-1.7s-1.2-0.5-1.7,0c-0.5,0.5-0.5,1.2,0,1.7c0,0,0,0,0,0
	C18.1,30.9,18.9,30.9,19.4,30.4C19.4,30.4,19.4,30.4,19.4,30.4z M17.4,41.1c1.1,0.7,2.6,0.4,3.3-0.7c0.7-1.1,0.4-2.6-0.7-3.3
	c-1.1-0.7-2.6-0.4-3.3,0.7c0,0,0,0,0,0C16.1,38.9,16.4,40.4,17.4,41.1C17.4,41.1,17.4,41.1,17.4,41.1z M11,43
	c0.4-0.6,0.2-1.3-0.3-1.7C10.1,40.9,9.4,41,9,41.6c-0.4,0.6-0.2,1.3,0.3,1.7C9.9,43.7,10.7,43.5,11,43C11,43,11,43,11,43z M9.9,50.8
	c-0.5,1.2,0.1,2.6,1.3,3.1s2.6-0.1,3.1-1.3c0.5-1.2-0.1-2.6-1.3-3.1C11.8,49,10.4,49.6,9.9,50.8C9.9,50.8,9.9,50.8,9.9,50.8z
	 M3.7,57.6c0.6,0.3,1.3,0,1.6-0.7c0.3-0.6,0-1.3-0.7-1.6C4,55.1,3.3,55.4,3,56c0,0,0,0,0,0C2.8,56.6,3.1,57.3,3.7,57.6L3.7,57.6z
	 M7.6,67.6c1.3,0.3,2.5-0.6,2.8-1.9c0.3-1.3-0.6-2.5-1.9-2.8c-1.3-0.3-2.5,0.6-2.8,1.9c0,0,0,0,0,0C5.5,66.1,6.3,67.3,7.6,67.6
	L7.6,67.6z M1,72.7c0.7,0.1,1.3-0.3,1.4-1c0.1-0.7-0.3-1.3-1-1.4c-0.7-0.1-1.3,0.3-1.4,1c0,0,0,0,0,0C-0.1,71.9,0.3,72.6,1,72.7
	L1,72.7z M4.4,79.4c0,1.3,1.1,2.4,2.4,2.4s2.4-1.1,2.4-2.4C9.1,78.1,8,77,6.7,77l0,0C5.4,77,4.4,78.1,4.4,79.4L4.4,79.4z M1.2,85.6
	c-0.7,0-1.2,0.5-1.2,1.2C0,87.5,0.5,88,1.2,88c0.7,0,1.2-0.5,1.2-1.2l0,0C2.4,86.2,1.9,85.6,1.2,85.6C1.2,85.6,1.2,85.6,1.2,85.6
	L1.2,85.6z M10.5,93c-0.3-1.3-1.5-2.1-2.8-1.9c-1.3,0.3-2.1,1.5-1.9,2.8s1.5,2.1,2.8,1.9c0,0,0,0,0,0C9.9,95.5,10.8,94.3,10.5,93
	C10.5,93,10.5,93,10.5,93L10.5,93z M4,100.7c-0.7,0.1-1.1,0.8-1,1.4c0.1,0.7,0.8,1.1,1.4,1c0.7-0.1,1.1-0.8,1-1.4
	C5.3,101,4.6,100.5,4,100.7C4,100.7,4,100.7,4,100.7L4,100.7z M11.5,104.8c-1.2,0.5-1.8,1.9-1.3,3.1c0.5,1.2,1.9,1.8,3.1,1.3
	c1.2-0.5,1.8-1.9,1.3-3.1c0,0,0,0,0,0C14.1,104.9,12.7,104.3,11.5,104.8C11.5,104.8,11.5,104.8,11.5,104.8L11.5,104.8z M9.6,114.9
	c-0.6,0.3-0.9,1-0.7,1.6c0.3,0.6,1,0.9,1.6,0.7c0.6-0.3,0.9-1,0.7-1.6C11,114.9,10.3,114.6,9.6,114.9C9.6,114.9,9.6,114.9,9.6,114.9
	z M17.8,117.5c-1.1,0.7-1.4,2.2-0.7,3.3s2.2,1.4,3.3,0.7c1.1-0.7,1.4-2.2,0.7-3.3C20.3,117.1,18.9,116.8,17.8,117.5
	C17.8,117.5,17.8,117.5,17.8,117.5L17.8,117.5z M18,127.7c-0.6,0.4-0.7,1.1-0.3,1.7c0.4,0.6,1.1,0.7,1.7,0.3
	c0.6-0.4,0.7-1.1,0.3-1.7C19.3,127.5,18.5,127.4,18,127.7L18,127.7z M29.8,128.7c-0.9-0.9-2.4-0.9-3.3,0c-0.9,0.9-0.9,2.4,0,3.3
	c0.9,0.9,2.4,0.9,3.3,0c0,0,0,0,0,0C30.7,131.2,30.7,129.7,29.8,128.7L29.8,128.7z M28.6,138.7c-0.5,0.5-0.5,1.2,0,1.7
	s1.2,0.5,1.7,0c0.5-0.5,0.5-1.2,0-1.7c0,0,0,0,0,0C29.9,138.2,29.1,138.2,28.6,138.7L28.6,138.7z M40.4,137.4
	c-1.1-0.7-2.6-0.4-3.3,0.7c-0.7,1.1-0.4,2.6,0.7,3.3c1.1,0.7,2.6,0.4,3.3-0.7C41.8,139.6,41.5,138.1,40.4,137.4L40.4,137.4z
	 M41.2,147.4c-0.4,0.6-0.2,1.3,0.3,1.7c0.6,0.4,1.3,0.2,1.7-0.3c0.4-0.6,0.2-1.3-0.3-1.7C42.4,146.7,41.6,146.9,41.2,147.4
	C41.2,147.4,41.2,147.4,41.2,147.4L41.2,147.4z M52.6,143.8c-1.2-0.5-2.6,0.1-3.1,1.3c-0.5,1.2,0.1,2.6,1.3,3.1
	c1.2,0.5,2.6-0.1,3.1-1.3C54.4,145.7,53.8,144.3,52.6,143.8C52.6,143.8,52.6,143.8,52.6,143.8L52.6,143.8z M56.9,152.8
	c-0.6-0.3-1.3,0-1.6,0.7c-0.3,0.6,0,1.3,0.7,1.6c0.6,0.3,1.3,0,1.6-0.7C57.8,153.8,57.5,153.1,56.9,152.8
	C56.9,152.8,56.9,152.8,56.9,152.8L56.9,152.8z M65.7,147.7c-1.3-0.3-2.5,0.6-2.8,1.9c-0.3,1.3,0.6,2.5,1.9,2.8
	c1.3,0.3,2.5-0.6,2.8-1.9c0,0,0,0,0,0C67.8,149.2,67,148,65.7,147.7L65.7,147.7z M71.7,155.7c-0.7-0.1-1.3,0.3-1.4,1
	c-0.1,0.7,0.3,1.3,1,1.4c0.7,0.1,1.3-0.3,1.4-1C72.8,156.5,72.4,155.8,71.7,155.7L71.7,155.7z M79.4,149c-1.3,0-2.4,1.1-2.4,2.4
	s1.1,2.4,2.4,2.4s2.4-1.1,2.4-2.4C81.7,150.1,80.7,149,79.4,149L79.4,149z M86.8,155.7c-0.7,0-1.2,0.5-1.2,1.2
	c0,0.7,0.5,1.2,1.2,1.2c0.7,0,1.2-0.5,1.2-1.2c0,0,0,0,0,0C88,156.2,87.5,155.7,86.8,155.7L86.8,155.7z M93,147.6
	c-1.3,0.3-2.1,1.5-1.9,2.8c0.3,1.3,1.5,2.1,2.8,1.9s2.1-1.5,1.9-2.8c0,0,0,0,0,0C95.5,148.2,94.3,147.3,93,147.6L93,147.6z
	 M101.6,152.7c-0.7,0.1-1.1,0.8-1,1.4c0.1,0.7,0.8,1.1,1.4,1c0.7-0.1,1.1-0.8,1-1.4c0,0,0,0,0,0C102.9,153,102.3,152.6,101.6,152.7
	L101.6,152.7z M106.1,143.6c-1.2,0.5-1.8,1.9-1.3,3.1s1.9,1.8,3.1,1.3c1.2-0.5,1.8-1.9,1.3-3.1C108.7,143.6,107.3,143.1,106.1,143.6
	L106.1,143.6z M115.5,146.9c-0.6,0.3-0.9,1-0.7,1.6c0.3,0.6,1,0.9,1.6,0.7c0.6-0.3,0.9-1,0.7-1.6c0,0,0,0,0,0
	C116.9,146.9,116.2,146.6,115.5,146.9L115.5,146.9z M118.2,137c-1.1,0.7-1.4,2.2-0.7,3.3c0.7,1.1,2.2,1.4,3.3,0.7s1.4-2.2,0.7-3.3
	c0,0,0,0,0,0C120.7,136.6,119.2,136.3,118.2,137L118.2,137z M128.1,138.4c-0.6,0.4-0.7,1.1-0.3,1.7c0.4,0.6,1.1,0.7,1.7,0.3
	s0.7-1.1,0.3-1.7c0,0,0,0,0,0C129.4,138.2,128.6,138.1,128.1,138.4L128.1,138.4z M128.7,128.3c-0.9,0.9-0.9,2.4,0,3.3
	c0.9,0.9,2.4,0.9,3.3,0c0.9-0.9,0.9-2.4,0-3.3c0,0,0,0,0,0C131.1,127.4,129.6,127.4,128.7,128.3
	C128.7,128.3,128.7,128.3,128.7,128.3z M138.7,127.7c-0.5,0.5-0.5,1.2,0,1.7s1.2,0.5,1.7,0c0.5-0.5,0.5-1.2,0-1.7c0,0,0,0,0,0
	C140,127.3,139.2,127.3,138.7,127.7C138.7,127.7,138.7,127.7,138.7,127.7L138.7,127.7z M140.6,117c-1.1-0.7-2.6-0.4-3.3,0.7
	c-0.7,1.1-0.4,2.6,0.7,3.3c1.1,0.7,2.6,0.4,3.3-0.7c0,0,0,0,0,0C142,119.2,141.7,117.7,140.6,117C140.6,117,140.6,117,140.6,117
	L140.6,117z M147.1,115.2c-0.4,0.6-0.2,1.3,0.3,1.7c0.6,0.4,1.3,0.2,1.7-0.3c0.4-0.6,0.2-1.3-0.3-1.7
	C148.2,114.5,147.4,114.6,147.1,115.2C147.1,115.2,147.1,115.2,147.1,115.2L147.1,115.2z M148.1,107.3c0.5-1.2-0.1-2.6-1.3-3.1
	s-2.6,0.1-3.1,1.3c-0.5,1.2,0.1,2.6,1.3,3.1C146.3,109.1,147.6,108.6,148.1,107.3L148.1,107.3z M154.4,100.5c-0.6-0.3-1.3,0-1.6,0.7
	s0,1.3,0.7,1.6s1.3,0,1.6-0.7c0,0,0,0,0,0C155.3,101.5,155,100.8,154.4,100.5L154.4,100.5z M150.5,90.5c-1.3-0.3-2.5,0.6-2.8,1.9
	s0.6,2.5,1.9,2.8c1.3,0.3,2.5-0.6,2.8-1.9c0,0,0,0,0,0C152.6,92,151.8,90.8,150.5,90.5L150.5,90.5z M157.1,85.4
	c-0.7-0.1-1.3,0.3-1.4,1s0.3,1.3,1,1.4c0.7,0.1,1.3-0.3,1.4-1c0,0,0,0,0,0C158.2,86.2,157.8,85.6,157.1,85.4L157.1,85.4z M149,78.7
	c0,1.3,1.1,2.4,2.4,2.4c1.3,0,2.4-1.1,2.4-2.4s-1.1-2.4-2.4-2.4C150,76.4,149,77.4,149,78.7C149,78.7,149,78.7,149,78.7L149,78.7z
	 M156.9,72.5c0.7,0,1.2-0.5,1.2-1.2c0-0.7-0.5-1.2-1.2-1.2c-0.7,0-1.2,0.5-1.2,1.2c0,0,0,0,0,0C155.7,72,156.2,72.5,156.9,72.5
	C156.9,72.5,156.9,72.5,156.9,72.5L156.9,72.5z M147.6,65.1c0.3,1.3,1.5,2.1,2.8,1.9c1.3-0.3,2.1-1.5,1.9-2.8
	c-0.3-1.3-1.5-2.1-2.8-1.9c0,0,0,0,0,0C148.2,62.6,147.3,63.8,147.6,65.1L147.6,65.1z M154.1,57.5c0.7-0.1,1.1-0.8,1-1.4
	c-0.1-0.7-0.8-1.1-1.4-1c-0.7,0.1-1.1,0.8-1,1.4c0,0,0,0,0,0C152.8,57.2,153.4,57.6,154.1,57.5L154.1,57.5z M146.6,53.3
	c1.2-0.5,1.8-1.9,1.3-3.1c-0.5-1.2-1.9-1.8-3.1-1.3s-1.8,1.9-1.3,3.1C144,53.2,145.4,53.8,146.6,53.3L146.6,53.3z M148.4,43.2
	c0.6-0.3,0.9-1,0.7-1.6c-0.3-0.6-1-0.9-1.6-0.7c-0.6,0.3-0.9,1-0.7,1.6c0,0,0,0,0,0C147.1,43.2,147.8,43.5,148.4,43.2L148.4,43.2z
	 M140.3,40.6c1.1-0.7,1.4-2.2,0.7-3.3c-0.7-1.1-2.2-1.4-3.3-0.7c-1.1,0.7-1.4,2.2-0.7,3.3c0,0,0,0,0,0
	C137.7,41,139.2,41.3,140.3,40.6L140.3,40.6z M140.1,30.4c0.6-0.4,0.7-1.1,0.3-1.7c-0.4-0.6-1.1-0.7-1.7-0.3
	c-0.6,0.4-0.7,1.1-0.3,1.7C138.8,30.6,139.6,30.8,140.1,30.4C140.1,30.4,140.1,30.4,140.1,30.4z M128.3,29.4c0.9,0.9,2.4,0.9,3.3,0
	c0.9-0.9,0.9-2.4,0-3.3c-0.9-0.9-2.4-0.9-3.3,0C127.3,27,127.3,28.5,128.3,29.4C128.3,29.4,128.3,29.4,128.3,29.4L128.3,29.4z
	 M129.4,19.4c0.5-0.5,0.5-1.2,0-1.7s-1.2-0.5-1.7,0c-0.5,0.5-0.5,1.2,0,1.7c0,0,0,0,0,0C128.2,19.9,129,19.9,129.4,19.4
	C129.4,19.4,129.4,19.4,129.4,19.4L129.4,19.4z M117.6,20.7c1.1,0.7,2.6,0.4,3.3-0.7c0.7-1.1,0.4-2.6-0.7-3.3
	c-1.1-0.7-2.6-0.4-3.3,0.7c0,0,0,0,0,0C116.3,18.5,116.5,20,117.6,20.7C117.6,20.7,117.6,20.7,117.6,20.7L117.6,20.7z M116.8,10.7
	c0.4-0.6,0.2-1.3-0.3-1.7c-0.6-0.4-1.3-0.2-1.7,0.3c-0.4,0.6-0.2,1.3,0.3,1.7C115.7,11.4,116.5,11.3,116.8,10.7
	C116.8,10.7,116.8,10.7,116.8,10.7L116.8,10.7z M105.5,14.3c1.2,0.5,2.6-0.1,3.1-1.3c0.5-1.2-0.1-2.6-1.3-3.1
	c-1.2-0.5-2.6,0.1-3.1,1.3C103.7,12.4,104.3,13.8,105.5,14.3C105.5,14.3,105.5,14.3,105.5,14.3z M101.2,5.3c0.6,0.3,1.3,0,1.6-0.7
	c0.3-0.6,0-1.3-0.7-1.6c-0.6-0.3-1.3,0-1.6,0.7c0,0,0,0,0,0C100.3,4.3,100.6,5,101.2,5.3C101.2,5.3,101.2,5.3,101.2,5.3L101.2,5.3z
	 M84.9,19.8c2.1,0,3.7-1.7,3.7-3.7c0-2.1-1.7-3.7-3.7-3.7c-2.1,0-3.7,1.7-3.7,3.7S82.8,19.8,84.9,19.8L84.9,19.8z M73.2,19.8
	c2-0.4,3.3-2.4,2.9-4.4c-0.4-2-2.4-3.3-4.4-2.9c-2,0.4-3.3,2.4-2.9,4.4C69.2,18.9,71.2,20.2,73.2,19.8
	C73.2,19.8,73.2,19.8,73.2,19.8z M56.9,20c0.8,1.9,3,2.8,4.9,2c1.9-0.8,2.8-3,2-4.9c-0.8-1.9-3-2.8-4.9-2C57,16,56.1,18.1,56.9,20
	L56.9,20z M51,26.5c1.7-1.1,2.2-3.5,1-5.2s-3.5-2.2-5.2-1c-1.7,1.1-2.2,3.5-1,5.2C47,27.2,49.3,27.7,51,26.5
	C51,26.5,51,26.5,51,26.5L51,26.5z M41.3,33c1.5-1.5,1.5-3.8,0-5.3s-3.8-1.5-5.3,0c-1.5,1.5-1.5,3.8,0,5.3
	C37.5,34.5,39.8,34.5,41.3,33C41.3,33,41.3,33,41.3,33L41.3,33z M26.8,37.1c-1.1,1.7-0.7,4,1,5.2c1.7,1.1,4,0.7,5.2-1
	c1.1-1.7,0.7-4-1-5.2c0,0,0,0,0,0C30.3,34.9,28,35.4,26.8,37.1C26.8,37.1,26.8,37.1,26.8,37.1z M19.6,48.1c-0.8,1.9,0.1,4.1,2,4.9
	c1.9,0.8,4.1-0.1,4.9-2c0.8-1.9-0.1-4.1-2-4.9C22.6,45.3,20.4,46.2,19.6,48.1C19.6,48.1,19.6,48.1,19.6,48.1L19.6,48.1z M17.7,64.7
	c2,0.4,4-0.9,4.4-2.9c0.4-2-0.9-4-2.9-4.4c-2-0.4-4,0.9-4.4,2.9C14.3,62.3,15.7,64.3,17.7,64.7C17.7,64.7,17.7,64.7,17.7,64.7
	L17.7,64.7z M19.8,73.2c0-2.1-1.7-3.7-3.7-3.7s-3.7,1.7-3.7,3.7s1.7,3.7,3.7,3.7C18.1,76.9,19.8,75.3,19.8,73.2
	C19.8,73.2,19.8,73.2,19.8,73.2L19.8,73.2z M16.8,89.3c2-0.4,3.3-2.4,2.9-4.4s-2.4-3.3-4.4-2.9c-2,0.4-3.3,2.4-2.9,4.4c0,0,0,0,0,0
	C12.9,88.3,14.8,89.7,16.8,89.3C16.8,89.3,16.8,89.3,16.8,89.3L16.8,89.3z M20,101.2c1.9-0.8,2.8-3,2-4.9c-0.8-1.9-3-2.8-4.9-2
	c-1.9,0.8-2.8,3-2,4.9C15.9,101.1,18.1,102,20,101.2C20,101.2,20,101.2,20,101.2z M26.5,107.1c-1.1-1.7-3.5-2.2-5.2-1
	c-1.7,1.1-2.2,3.5-1,5.2c1.1,1.7,3.5,2.2,5.2,1c0,0,0,0,0,0C27.2,111.1,27.6,108.8,26.5,107.1L26.5,107.1z M27.7,116.8
	c-1.5,1.5-1.5,3.8,0,5.3c1.5,1.5,3.8,1.5,5.3,0c1.5-1.5,1.5-3.8,0-5.3C31.5,115.4,29.2,115.4,27.7,116.8L27.7,116.8z M42.3,130.3
	c1.1-1.7,0.7-4-1-5.2c-1.7-1.1-4-0.7-5.2,1s-0.7,4,1,5.2c0,0,0,0,0,0C38.8,132.4,41.1,132,42.3,130.3z M53,136.4
	c0.8-1.9-0.1-4.1-2-4.9c-1.9-0.8-4.1,0.1-4.9,2c-0.8,1.9,0.1,4.1,2,4.9c0,0,0,0,0,0C50,139.2,52.2,138.3,53,136.4z M64.7,140.4
	c0.4-2-0.9-4-2.9-4.4c-2-0.4-4,0.9-4.4,2.9c-0.4,2,0.9,4,2.9,4.4C62.3,143.8,64.3,142.4,64.7,140.4L64.7,140.4z M73.2,138.3
	c-2.1,0-3.7,1.7-3.7,3.7s1.7,3.7,3.7,3.7c2.1,0,3.7-1.7,3.7-3.7C76.9,140,75.2,138.3,73.2,138.3C73.2,138.3,73.2,138.3,73.2,138.3
	L73.2,138.3z M84.9,138.3c-2,0.4-3.3,2.4-2.9,4.4c0.4,2,2.4,3.3,4.4,2.9c2-0.4,3.3-2.4,2.9-4.4c0,0,0,0,0,0
	C88.8,139.2,86.9,137.9,84.9,138.3C84.9,138.3,84.9,138.3,84.9,138.3L84.9,138.3z M101.2,138.1c-0.8-1.9-3-2.8-4.9-2
	c-1.9,0.8-2.8,3-2,4.9c0.8,1.9,3,2.8,4.9,2c0,0,0,0,0,0C101.1,142.2,102,140,101.2,138.1C101.2,138.1,101.2,138.1,101.2,138.1
	L101.2,138.1z M107.1,131.6c-1.7,1.1-2.2,3.5-1,5.2c1.1,1.7,3.5,2.2,5.2,1c1.7-1.1,2.2-3.5,1-5.2
	C111.1,130.9,108.8,130.5,107.1,131.6C107.1,131.6,107.1,131.6,107.1,131.6L107.1,131.6z M116.8,125.1c-1.5,1.5-1.5,3.8,0,5.3
	s3.8,1.5,5.3,0c1.5-1.5,1.5-3.8,0-5.3c0,0,0,0,0,0C120.6,123.7,118.3,123.7,116.8,125.1C116.8,125.1,116.8,125.1,116.8,125.1
	L116.8,125.1z M131.3,121c1.1-1.7,0.7-4-1-5.2s-4-0.7-5.2,1s-0.7,4,1,5.2c0,0,0,0,0,0C127.8,123.2,130.1,122.7,131.3,121L131.3,121z
	 M138.4,110c0.8-1.9-0.1-4.1-2-4.9s-4.1,0.1-4.9,2c-0.8,1.9,0.1,4.1,2,4.9c0,0,0,0,0,0C135.5,112.8,137.7,111.9,138.4,110L138.4,110
	z M140.4,93.4c-2-0.4-4,0.9-4.4,2.9c-0.4,2,0.9,4,2.9,4.4c2,0.4,4-0.9,4.4-2.9C143.7,95.8,142.4,93.8,140.4,93.4
	C140.4,93.4,140.4,93.4,140.4,93.4L140.4,93.4z M142,88.7c2.1,0,3.7-1.7,3.7-3.7c0-2.1-1.7-3.7-3.7-3.7c-2.1,0-3.7,1.7-3.7,3.7
	C138.3,87,140,88.7,142,88.7L142,88.7z M142.7,76.2c2-0.4,3.3-2.4,2.9-4.4c-0.4-2-2.4-3.3-4.4-2.9c-2,0.4-3.3,2.4-2.9,4.4
	c0,0,0,0,0,0C138.7,75.3,140.7,76.6,142.7,76.2L142.7,76.2z M138.1,56.9c-1.9,0.8-2.8,3-2,4.9c0.8,1.9,3,2.8,4.9,2
	c1.9-0.8,2.8-3,2-4.9C142.1,57,140,56.1,138.1,56.9C138.1,56.9,138.1,56.9,138.1,56.9L138.1,56.9z M131.6,51c1.1,1.7,3.5,2.2,5.2,1
	c1.7-1.1,2.2-3.5,1-5.2s-3.5-2.2-5.2-1c0,0,0,0,0,0C130.9,47,130.4,49.3,131.6,51C131.6,51,131.6,51,131.6,51L131.6,51z M130.4,41.3
	c1.5-1.5,1.5-3.8,0-5.3s-3.8-1.5-5.3,0c-1.5,1.5-1.5,3.8,0,5.3C126.6,42.8,128.9,42.8,130.4,41.3L130.4,41.3z M115.8,27.9
	c-1.1,1.7-0.7,4,1,5.2c1.7,1.1,4,0.7,5.2-1c1.1-1.7,0.7-4-1-5.2c0,0,0,0,0,0C119.3,25.7,117,26.2,115.8,27.9z M105.1,21.7
	c-0.8,1.9,0.1,4.1,2,4.9c1.9,0.8,4.1-0.1,4.9-2c0.8-1.9-0.1-4.1-2-4.9c0,0,0,0,0,0C108.1,18.9,105.9,19.8,105.1,21.7
	C105.1,21.7,105.1,21.7,105.1,21.7z M93.4,17.7c-0.4,2,0.9,4,2.9,4.4c2,0.4,4-0.9,4.4-2.9c0.4-2-0.9-4-2.9-4.4c0,0,0,0,0,0
	C95.8,14.4,93.8,15.7,93.4,17.7z M78.8,30.4c2.3-0.3,3.9-2.3,3.7-4.6c-0.2-2.1-2-3.7-4.1-3.7c-0.1,0-0.3,0-0.4,0
	c-2.3,0.3-3.9,2.3-3.7,4.6c0.2,2.1,2,3.7,4.1,3.7C78.6,30.4,78.7,30.4,78.8,30.4z M64.1,28.6c0.7,2.2,3,3.4,5.2,2.7
	c2.2-0.7,3.4-3,2.7-5.2c-0.7-2.2-3-3.4-5.2-2.7C64.7,24,63.5,26.4,64.1,28.6C64.1,28.6,64.1,28.6,64.1,28.6z M58.2,34.6
	c2.3,0,4.2-1.9,4.2-4.2c0-2.3-1.9-4.2-4.2-4.2c-2.3,0-4.2,1.9-4.2,4.2c0,0.7,0.2,1.4,0.5,2C55.3,33.8,56.7,34.6,58.2,34.6L58.2,34.6
	z M49.2,39.6c2.3,0,4.2-1.9,4.2-4.2c0-2.3-1.9-4.2-4.2-4.2c-2.3,0-4.2,1.9-4.2,4.2c0,1,0.3,1.9,1,2.7C46.8,39.1,47.9,39.6,49.2,39.6
	L49.2,39.6z M38,39.5c-1.4,1.8-1.2,4.4,0.6,5.9c1.8,1.4,4.4,1.2,5.9-0.6c1.4-1.8,1.2-4.4-0.6-5.9c-0.7-0.6-1.7-0.9-2.6-0.9
	C40,38,38.8,38.5,38,39.5z M31.1,48.3c-1.1,2-0.3,4.6,1.7,5.6c2,1.1,4.6,0.3,5.6-1.7c1.1-2,0.3-4.6-1.7-5.6
	c-0.6-0.3-1.3-0.5-1.9-0.5C33.2,46.1,31.8,46.9,31.1,48.3z M28.8,63.4c2.2,0.7,4.5-0.6,5.2-2.8s-0.6-4.5-2.8-5.2
	C29,54.8,26.6,56,26,58.2c0,0,0,0,0,0C25.3,60.4,26.6,62.8,28.8,63.4C28.8,63.4,28.8,63.4,28.8,63.4z M22.9,69
	c-0.2,2.3,1.5,4.3,3.8,4.5c0.1,0,0.3,0,0.4,0c2.3,0,4.2-1.9,4.2-4.2c0-2.2-1.6-4-3.8-4.1c-0.1,0-0.3,0-0.4,0
	C24.9,65.2,23.1,66.8,22.9,69z M22.1,80.1c0.2,2.1,2,3.7,4.1,3.7c0.1,0,0.3,0,0.4,0c2.3-0.3,3.9-2.3,3.7-4.6c-0.2-2.1-2-3.7-4.1-3.7
	c-0.1,0-0.3,0-0.4,0C23.5,75.8,21.8,77.8,22.1,80.1C22.1,80.1,22.1,80.1,22.1,80.1L22.1,80.1z M27.3,94.2c0.4,0,0.8-0.1,1.2-0.2
	c2.2-0.7,3.4-3,2.7-5.2c-0.7-2.2-3-3.4-5.2-2.7c-2.2,0.7-3.4,3-2.7,5.2C23.9,93,25.5,94.2,27.3,94.2z M30.5,104
	c2.3,0,4.2-1.9,4.2-4.2s-1.9-4.2-4.2-4.2c-2.3,0-4.2,1.9-4.2,4.2c0,0.7,0.2,1.4,0.5,2C27.5,103.2,28.9,104,30.5,104L30.5,104z
	 M35.5,113.1c2.3,0,4.2-1.9,4.2-4.2c0-2.3-1.9-4.2-4.2-4.2c-2.3,0-4.2,1.9-4.2,4.2c0,1,0.3,1.9,1,2.7
	C33,112.6,34.2,113.1,35.5,113.1L35.5,113.1z M44.7,113.6c-1.8-1.4-4.4-1.2-5.9,0.6c-1.4,1.8-1.2,4.4,0.6,5.9
	c1.8,1.4,4.4,1.2,5.9-0.6C46.8,117.7,46.5,115.1,44.7,113.6L44.7,113.6z M52.1,119.7c-2-1.1-4.6-0.3-5.6,1.7s-0.3,4.6,1.7,5.6
	c2,1.1,4.6,0.3,5.6-1.7S54.2,120.7,52.1,119.7L52.1,119.7z M60.6,124.1c-2.2-0.7-4.5,0.6-5.2,2.8c-0.7,2.2,0.6,4.5,2.8,5.2
	c2.2,0.7,4.5-0.6,5.2-2.8c0,0,0,0,0,0C64,127.1,62.8,124.8,60.6,124.1z M73.5,131.4c0.2-2.3-1.5-4.3-3.8-4.5c-0.1,0-0.3,0-0.4,0
	c-2.3,0-4.2,1.9-4.2,4.2c0,2.2,1.6,4,3.8,4.1c0.1,0,0.3,0,0.4,0C71.5,135.2,73.3,133.5,73.5,131.4L73.5,131.4z M79.7,136.1
	c0.1,0,0.3,0,0.4,0c2.3-0.3,3.9-2.3,3.7-4.6c-0.2-2.1-2-3.7-4.1-3.7c-0.1,0-0.3,0-0.4,0c-2.3,0.3-3.9,2.3-3.7,4.6
	C75.8,134.5,77.6,136.1,79.7,136.1z M93.9,129.5c-0.7-2.2-3-3.4-5.2-2.7c-2.2,0.7-3.4,3-2.7,5.2c0.7,2.2,3,3.4,5.2,2.7c0,0,0,0,0,0
	C93.4,134.1,94.6,131.8,93.9,129.5C94,129.6,93.9,129.5,93.9,129.5L93.9,129.5z M99.8,123.5c-2.3,0-4.2,1.9-4.2,4.2
	c0,2.3,1.9,4.2,4.2,4.2s4.2-1.9,4.2-4.2c0-0.7-0.2-1.4-0.5-2C102.8,124.3,101.4,123.5,99.8,123.5L99.8,123.5z M108.9,118.5
	c-2.3,0-4.2,1.9-4.2,4.2c0,2.3,1.9,4.2,4.2,4.2c2.3,0,4.2-1.9,4.2-4.2c0-1-0.3-1.9-1-2.7C111.3,119,110.2,118.5,108.9,118.5
	L108.9,118.5z M120.1,118.6c1.4-1.8,1.2-4.4-0.6-5.9s-4.4-1.2-5.9,0.6c-1.4,1.8-1.2,4.4,0.6,5.9c0.7,0.6,1.7,0.9,2.6,0.9
	C118.1,120.1,119.3,119.6,120.1,118.6L120.1,118.6z M127,109.8c1.1-2,0.3-4.6-1.7-5.6c-2-1.1-4.6-0.3-5.6,1.7c0,0,0,0,0,0
	c-1.1,2-0.3,4.6,1.7,5.6C123.4,112.7,125.9,111.9,127,109.8z M126.9,102.7c2.2,0.7,4.5-0.6,5.2-2.8c0.7-2.2-0.6-4.5-2.8-5.2
	s-4.5,0.6-5.2,2.8c0,0,0,0,0,0C123.5,99.7,124.7,102,126.9,102.7L126.9,102.7z M135.1,89.1c0.2-2.3-1.5-4.3-3.8-4.5
	c-0.1,0-0.3,0-0.4,0c-2.3,0-4.2,1.9-4.2,4.2c0,2.2,1.6,4,3.8,4.1c0.1,0,0.3,0,0.4,0C133.2,92.9,135,91.3,135.1,89.1L135.1,89.1z
	 M136,78c-0.2-2.1-2-3.7-4.1-3.7c-0.1,0-0.3,0-0.4,0c-2.3,0.3-3.9,2.3-3.7,4.6c0.2,2.1,2,3.7,4.1,3.7c0.1,0,0.3,0,0.4,0
	C134.6,82.3,136.3,80.3,136,78L136,78z M129.5,64.2c-2.2,0.7-3.4,3-2.7,5.2c0.7,2.2,3,3.4,5.2,2.7c2.2-0.7,3.4-3,2.7-5.2
	c-0.5-1.7-2.2-2.9-4-2.9C130.3,64,129.9,64,129.5,64.2L129.5,64.2z M127.6,62.4c2.3,0,4.2-1.9,4.2-4.2s-1.9-4.2-4.2-4.2
	c-2.3,0-4.2,1.9-4.2,4.2c0,0.7,0.2,1.4,0.5,2C124.7,61.6,126.1,62.4,127.6,62.4L127.6,62.4z M126.8,49.6c0.2-2.3-1.5-4.3-3.8-4.5
	c-2.3-0.2-4.3,1.5-4.5,3.8s1.5,4.3,3.8,4.5c1.1,0.1,2.2-0.2,3-0.9C126.1,51.7,126.7,50.7,126.8,49.6L126.8,49.6z M111.8,41.7
	c0.2,2.3,2.3,3.9,4.6,3.7c2.3-0.2,3.9-2.3,3.7-4.6c-0.1-1.1-0.7-2.1-1.5-2.8c-1.8-1.4-4.4-1.2-5.9,0.6
	C112,39.5,111.7,40.6,111.8,41.7z M105.9,38.5c2,1.1,4.6,0.3,5.6-1.7c0,0,0,0,0,0c1.1-2,0.3-4.6-1.7-5.6c-2-1.1-4.6-0.3-5.6,1.7
	C103.1,34.9,103.9,37.4,105.9,38.5C105.9,38.5,105.9,38.5,105.9,38.5z M99.9,26c-2.2-0.7-4.5,0.6-5.2,2.8C94,31,95.3,33.3,97.5,34
	c2.2,0.7,4.5-0.6,5.2-2.8c0,0,0,0,0,0C103.3,29,102.1,26.7,99.9,26L99.9,26z M84.6,26.7c-0.2,2.3,1.5,4.3,3.8,4.5c0,0,0,0,0,0
	c0.1,0,0.3,0,0.4,0c2.3,0,4.2-1.9,4.2-4.2c0-2.1-1.6-3.9-3.8-4.1c-0.1,0-0.3,0-0.4,0C86.6,22.9,84.8,24.6,84.6,26.7L84.6,26.7z
	 M92.4,10.4c1.3,0.3,2.5-0.6,2.8-1.9c0.3-1.3-0.6-2.5-1.9-2.8c-1.3-0.3-2.5,0.6-2.8,1.9C90.3,8.9,91.1,10.2,92.4,10.4L92.4,10.4z
	 M86.4,2.4c0.7,0.1,1.3-0.3,1.4-1c0.1-0.7-0.3-1.3-1-1.4c-0.7-0.1-1.3,0.3-1.4,1c0,0,0,0,0,0C85.3,1.6,85.7,2.3,86.4,2.4L86.4,2.4z"
	/>
<path d="M218.9,85.6c0,9.3-4.3,13.8-12.9,13.8c-2.2,0.1-4.4-0.4-6.5-1.3V91c1.7,0.8,3.5,1.3,5.3,1.3c3.7,0,5.7-2,5.7-5.8V50.7h8.4
	V85.6z"/>
<path d="M281.4,81.5c0,11-7.2,18-19.3,18c-12,0-19.2-6.9-19.2-18V50.7h8.3v30.1c0,6.9,4.1,11,10.9,11c6.9,0,10.9-4.1,10.9-11V50.7
	h8.4L281.4,81.5z"/>
<path d="M313.7,81.1v17.5h-8.4V50.7h15.2c10.6,0,17.4,5.5,17.4,15.2c0,9.7-6.7,15.2-17.4,15.2L313.7,81.1z M313.7,57.7v16.3h7.2
	c5.2,0,8.5-2.9,8.5-8.1c0-5.3-3.5-8.2-8.9-8.2L313.7,57.7z"/>
<path d="M358.7,98.6V50.7h8.4v47.9L358.7,98.6z"/>
<path d="M409.2,57.7v40.9h-8.4V57.7h-14v-7.1h36.3v7.1L409.2,57.7z"/>
<path d="M442.8,98.6V50.7H473v7.1h-21.8v13.2h18.4v6.9h-18.4v13.8H474v7.1L442.8,98.6z"/>
<path d="M511.6,50.7c10.8,0,17.7,5.5,17.7,15.2c0.2,6.1-3.7,11.6-9.5,13.5l10.4,19.2h-9l-9.2-17.8h-8.5v17.8h-8.3V50.7H511.6z
	 M503.7,57.7v16.3h8.4c5.4,0,8.9-2.9,8.9-8.1c0-5.3-3.6-8.2-9.3-8.2H503.7z"/>
<path d="M573.6,49.9c13.8,0,24.2,11,24.2,24.8c0,13.8-10.4,24.8-24.2,24.8s-24.2-10.9-24.2-24.8C549.3,61,559.7,49.9,573.6,49.9z
	 M573.6,95.8c11.9,0,20.2-9.3,20.2-21.2c0-11.8-8.3-21.2-20.2-21.2c-11.8,0-20.3,9.3-20.3,21.2C553.3,86.6,561.7,95.8,573.6,95.8z"
	/>
<path d="M626.6,61.5c-0.5-0.5-0.9-1.1-1.3-1.7c0.1,0.8,0.1,1.8,0.1,3.1v35.7h-3.9V49.9h0.1l31.3,37.9c0.5,0.6,1.1,1.3,1.3,1.7
	c-0.1-0.7-0.1-1.8-0.1-3.1V50.8h3.8v48.7h-0.1L626.6,61.5z"/>
<path d="M685.4,98.6V50.7h28.4V54h-24.6v18.8h20.9V76h-20.9v19.4h25.6v3.3H685.4z"/>
</svg>
