<svg id="Layer_1" data-name="Layer 1" xmlns="http://www.w3.org/2000/svg" xmlns:xlink="http://www.w3.org/1999/xlink" viewBox="0 0 810.691 253.959"><defs><style>.cls-1{fill:url(#linear-gradient);}.cls-2{fill:#fff;}</style><linearGradient id="linear-gradient" x1="71.116" y1="182.878" x2="182.933" y2="71.061" gradientUnits="userSpaceOnUse"><stop offset="0" stop-color="#fff"/><stop offset="0.5" stop-color="#2accff"/><stop offset="1" stop-color="#d8ec13"/></linearGradient></defs><title>J1-id-rev-color</title><path class="cls-1" d="M126.712,57.033a2.365,2.365,0,1,0-2.365-2.365A2.365,2.365,0,0,0,126.712,57.033Zm-7.45-6.677a1.217,1.217,0,1,0-1.217-1.217A1.217,1.217,0,0,0,119.262,50.356Zm-6.188,8.082a2.365,2.365,0,1,0-2.781-1.858A2.365,2.365,0,0,0,113.074,58.438Zm-8.61-5.095a1.217,1.217,0,1,0-1.431-.956A1.217,1.217,0,0,0,104.464,53.343Zm-4.492,9.134a2.365,2.365,0,1,0-3.09-1.28A2.365,2.365,0,0,0,99.972,62.477Zm-9.438-3.318a1.217,1.217,0,1,0-1.59-.659A1.216,1.216,0,0,0,90.534,59.159ZM87.91,68.994a2.365,2.365,0,1,0-3.28-.653A2.365,2.365,0,0,0,87.91,68.994Zm-9.905-1.413a1.217,1.217,0,1,0-1.687-.336A1.217,1.217,0,0,0,78.005,67.581Zm-.654,10.158a2.365,2.365,0,1,0-3.345,0A2.365,2.365,0,0,0,77.351,77.739Zm-9.99.546a1.217,1.217,0,1,0-1.721,0A1.216,1.216,0,0,0,67.361,78.285Zm-1.94,10.743a2.365,2.365,0,1,0-.653-3.28A2.364,2.364,0,0,0,65.421,89.028ZM59.01,90.86a1.217,1.217,0,1,0-1.688.336A1.216,1.216,0,0,0,59.01,90.86Zm-1.088,7.826a2.365,2.365,0,1,0,3.091-1.28A2.365,2.365,0,0,0,57.922,98.686Zm-6.24,6.8a1.217,1.217,0,1,0-.658-1.59A1.217,1.217,0,0,0,51.682,105.482Zm3.908,10.009a2.365,2.365,0,1,0-1.858-2.781A2.364,2.364,0,0,0,55.59,115.491Zm-6.652,5.1a1.217,1.217,0,1,0-.956-1.431A1.218,1.218,0,0,0,48.938,120.594Zm3.421,6.689a2.365,2.365,0,1,0,2.365-2.365A2.365,2.365,0,0,0,52.359,127.283Zm-3.165,6.233a1.217,1.217,0,1,0,1.217,1.217A1.217,1.217,0,0,0,49.194,133.516Zm9.3,7.405a2.365,2.365,0,1,0-1.858,2.781A2.364,2.364,0,0,0,58.493,140.921Zm-6.526,7.653a1.217,1.217,0,1,0,1.431.957A1.218,1.218,0,0,0,51.967,148.574Zm7.475,4.169a2.365,2.365,0,1,0,3.09,1.279A2.364,2.364,0,0,0,59.442,152.743ZM57.624,162.8a1.217,1.217,0,1,0,1.59.659A1.217,1.217,0,0,0,57.624,162.8Zm8.144,2.63a2.365,2.365,0,1,0,3.281.652A2.365,2.365,0,0,0,65.768,165.432Zm.18,10.221a1.217,1.217,0,1,0,1.688.336A1.217,1.217,0,0,0,65.948,175.653Zm11.846.991a2.365,2.365,0,1,0,0,3.344A2.365,2.365,0,0,0,77.794,176.644Zm-1.175,9.989a1.217,1.217,0,1,0,1.721,0A1.217,1.217,0,0,0,76.619,186.633Zm11.812-1.34a2.365,2.365,0,1,0,.652,3.281A2.367,2.367,0,0,0,88.431,185.293Zm.8,10.028a1.216,1.216,0,1,0,1.687-.336A1.217,1.217,0,0,0,89.228,195.321Zm11.323-3.619a2.365,2.365,0,1,0,1.28,3.09A2.364,2.364,0,0,0,100.551,191.7Zm4.327,9.021a1.217,1.217,0,1,0,.659,1.59A1.215,1.215,0,0,0,104.878,200.723Zm8.81-5.1a2.365,2.365,0,1,0,1.858,2.781A2.366,2.366,0,0,0,113.688,195.623Zm6,8a1.217,1.217,0,1,0,.957,1.431A1.216,1.216,0,0,0,119.692,203.626Zm7.646-6.72a2.365,2.365,0,1,0,2.365,2.365A2.365,2.365,0,0,0,127.338,196.906Zm7.45,6.677a1.217,1.217,0,1,0,1.217,1.217A1.217,1.217,0,0,0,134.788,203.583Zm6.188-8.082a2.365,2.365,0,1,0,2.781,1.858A2.365,2.365,0,0,0,140.976,195.5Zm8.61,5.1a1.217,1.217,0,1,0,1.43.956A1.217,1.217,0,0,0,149.586,200.6Zm4.491-9.134a2.365,2.365,0,1,0,3.091,1.28A2.365,2.365,0,0,0,154.077,191.463Zm9.439,3.318a1.217,1.217,0,1,0,1.59.658A1.217,1.217,0,0,0,163.516,194.781Zm2.624-9.835a2.365,2.365,0,1,0,3.28.652A2.364,2.364,0,0,0,166.14,184.946Zm9.9,1.413a1.217,1.217,0,1,0,1.688.335A1.217,1.217,0,0,0,176.044,186.359ZM176.7,176.2a2.365,2.365,0,1,0,3.344,0A2.364,2.364,0,0,0,176.7,176.2Zm9.989-.547a1.217,1.217,0,1,0,1.721,0A1.217,1.217,0,0,0,186.688,175.654Zm1.941-10.742a2.365,2.365,0,1,0,.653,3.28A2.364,2.364,0,0,0,188.629,164.912Zm6.411-1.833a1.217,1.217,0,1,0,1.688-.336A1.216,1.216,0,0,0,195.04,163.079Zm1.087-7.825a2.365,2.365,0,1,0-3.09,1.28A2.365,2.365,0,0,0,196.127,155.254Zm6.241-6.8a1.217,1.217,0,1,0,.658,1.589A1.216,1.216,0,0,0,202.368,148.458Zm-3.908-10.01a2.365,2.365,0,1,0,1.858,2.781A2.365,2.365,0,0,0,198.46,138.448Zm6.652-5.1a1.217,1.217,0,1,0,.956,1.431A1.217,1.217,0,0,0,205.112,133.346Zm-8.151-6.689a2.365,2.365,0,1,0,2.365-2.365A2.365,2.365,0,0,0,196.961,126.657Zm7.894-6.234a1.217,1.217,0,1,0-1.217-1.216A1.216,1.216,0,0,0,204.855,120.423Zm-9.3-7.4a2.365,2.365,0,1,0,1.858-2.781A2.365,2.365,0,0,0,195.556,113.019Zm6.527-7.654a1.217,1.217,0,1,0-1.431-.956A1.217,1.217,0,0,0,202.083,105.365Zm-7.475-4.168a2.365,2.365,0,1,0-3.09-1.28A2.366,2.366,0,0,0,194.608,101.2Zm1.818-10.06a1.217,1.217,0,1,0-1.59-.658A1.218,1.218,0,0,0,196.426,91.137Zm-8.145-2.63a2.365,2.365,0,1,0-3.28-.652A2.365,2.365,0,0,0,188.281,88.507ZM188.1,78.286a1.217,1.217,0,1,0-1.688-.336A1.217,1.217,0,0,0,188.1,78.286Zm-11.846-.99a2.365,2.365,0,1,0,0-3.345A2.364,2.364,0,0,0,176.256,77.3Zm1.174-9.99a1.217,1.217,0,1,0-1.721,0A1.217,1.217,0,0,0,177.43,67.306Zm-11.811,1.34a2.365,2.365,0,1,0-.652-3.28A2.364,2.364,0,0,0,165.619,68.646Zm-.8-10.027a1.217,1.217,0,1,0-1.688.336A1.217,1.217,0,0,0,164.822,58.619ZM153.5,62.237a2.365,2.365,0,1,0-1.28-3.09A2.365,2.365,0,0,0,153.5,62.237Zm-4.328-9.02a1.217,1.217,0,1,0-.658-1.59A1.216,1.216,0,0,0,149.171,53.217ZM132.89,67.7a3.729,3.729,0,1,0-3.729-3.729A3.729,3.729,0,0,0,132.89,67.7Zm-11.675,0a3.729,3.729,0,1,0-4.385-2.93A3.728,3.728,0,0,0,121.215,67.7Zm-16.324.255a3.729,3.729,0,1,0,2.018-4.873A3.728,3.728,0,0,0,104.891,67.952Zm-5.917,6.481A3.729,3.729,0,1,0,93.8,73.4,3.73,3.73,0,0,0,98.974,74.433Zm-9.71,6.481a3.729,3.729,0,1,0-5.274,0A3.729,3.729,0,0,0,89.264,80.914ZM74.8,85.023a3.729,3.729,0,1,0,5.172-1.029A3.728,3.728,0,0,0,74.8,85.023Zm-7.18,10.994A3.729,3.729,0,1,0,72.5,94,3.73,3.73,0,0,0,67.623,96.017Zm-1.967,16.568a3.729,3.729,0,1,0-2.93-4.385A3.728,3.728,0,0,0,65.656,112.585Zm2.1,8.52a3.729,3.729,0,1,0-3.729,3.729A3.728,3.728,0,0,0,67.757,121.105Zm-2.935,16.06a3.729,3.729,0,1,0-4.384-2.93A3.729,3.729,0,0,0,64.822,137.165ZM68.007,149.1a3.729,3.729,0,1,0-4.873-2.018A3.728,3.728,0,0,0,68.007,149.1Zm6.481,5.916a3.73,3.73,0,1,0-1.029,5.173A3.731,3.731,0,0,0,74.488,155.02Zm1.208,9.711a3.729,3.729,0,1,0,5.274,0A3.727,3.727,0,0,0,75.7,164.731ZM90.25,178.163a3.729,3.729,0,1,0-5.172,1.028A3.729,3.729,0,0,0,90.25,178.163Zm10.694,6.19a3.729,3.729,0,1,0-4.872,2.018A3.729,3.729,0,0,0,100.944,184.353Zm11.7,3.986a3.729,3.729,0,1,0-4.385,2.93A3.729,3.729,0,0,0,112.64,188.339Zm8.52-2.1a3.729,3.729,0,1,0,3.729,3.729A3.73,3.73,0,0,0,121.16,186.237Zm11.675.006a3.729,3.729,0,1,0,4.385,2.929A3.728,3.728,0,0,0,132.835,186.243Zm16.324-.255a3.729,3.729,0,1,0-2.018,4.872A3.729,3.729,0,0,0,149.159,185.988Zm5.916-6.481a3.729,3.729,0,1,0,5.173,1.029A3.729,3.729,0,0,0,155.075,179.507Zm9.711-6.482a3.729,3.729,0,1,0,5.273,0A3.73,3.73,0,0,0,164.786,173.025Zm14.46-4.108a3.729,3.729,0,1,0-5.172,1.029A3.728,3.728,0,0,0,179.246,168.917Zm7.18-10.994a3.729,3.729,0,1,0-4.872,2.018A3.728,3.728,0,0,0,186.426,157.923Zm1.968-16.568a3.729,3.729,0,1,0,2.93,4.385A3.729,3.729,0,0,0,188.394,141.355Zm1.627-4.791a3.729,3.729,0,1,0-3.729-3.729A3.729,3.729,0,0,0,190.021,136.564Zm.661-12.475a3.729,3.729,0,1,0-4.384-2.929A3.728,3.728,0,0,0,190.682,124.089Zm-4.639-19.254a3.729,3.729,0,1,0,4.872,2.019A3.731,3.731,0,0,0,186.043,104.835Zm-6.481-5.916a3.729,3.729,0,1,0,1.029-5.172A3.728,3.728,0,0,0,179.562,98.919Zm-1.208-9.71a3.729,3.729,0,1,0-5.274,0A3.73,3.73,0,0,0,178.354,89.209ZM163.8,75.777a3.729,3.729,0,1,0,5.172-1.029A3.729,3.729,0,0,0,163.8,75.777Zm-10.694-6.191a3.729,3.729,0,1,0,4.872-2.018A3.728,3.728,0,0,0,153.106,69.586ZM141.41,65.6a3.729,3.729,0,1,0,4.385-2.929A3.729,3.729,0,0,0,141.41,65.6ZM126.832,78.269a4.163,4.163,0,0,0-.432-8.3,4.043,4.043,0,0,0-.438.023,4.163,4.163,0,0,0,.432,8.3A4.344,4.344,0,0,0,126.832,78.269ZM112.124,76.5a4.163,4.163,0,1,0,2.741-5.212A4.143,4.143,0,0,0,112.124,76.5Zm-5.9,6.054a4.164,4.164,0,1,0-3.661-2.178A4.165,4.165,0,0,0,106.225,82.555Zm-9.078,4.991a4.165,4.165,0,1,0-3.2-1.5A4.166,4.166,0,0,0,97.147,87.546ZM85.98,87.429a4.164,4.164,0,1,0,3.238-1.543A4.136,4.136,0,0,0,85.98,87.429ZM79.055,96.2a4.164,4.164,0,1,0,3.688-2.226A4.169,4.169,0,0,0,79.055,96.2ZM76.782,111.32a4.164,4.164,0,1,0-2.809-5.174,4.162,4.162,0,0,0,2.809,5.174ZM70.93,116.9a4.164,4.164,0,0,0,3.764,4.527q.195.018.387.018a4.164,4.164,0,0,0,.375-8.311c-.128-.011-.256-.017-.384-.017A4.142,4.142,0,0,0,70.93,116.9Zm-.888,11.137a4.154,4.154,0,0,0,4.138,3.729,4.078,4.078,0,0,0,.439-.024,4.163,4.163,0,0,0-.431-8.3,4.082,4.082,0,0,0-.44.024,4.162,4.162,0,0,0-3.706,4.575Zm5.278,14.026a4.185,4.185,0,0,0,1.235-.188,4.16,4.16,0,1,0-1.235.188Zm3.129,9.877a4.165,4.165,0,1,0-3.662-2.178A4.167,4.167,0,0,0,78.449,151.936Zm4.99,9.077a4.166,4.166,0,1,0-3.2-1.5A4.163,4.163,0,0,0,83.439,161.013Zm9.285.53a4.163,4.163,0,1,0,.617,5.855A4.172,4.172,0,0,0,92.724,161.543Zm7.4,6.027a4.164,4.164,0,1,0,1.746,5.624,4.164,4.164,0,0,0-1.746-5.624Zm8.438,4.468a4.164,4.164,0,1,0,2.81,5.174,4.164,4.164,0,0,0-2.81-5.174Zm12.912,7.261a4.171,4.171,0,0,0-3.766-4.527c-.128-.012-.256-.017-.383-.017a4.164,4.164,0,0,0-.377,8.311c.128.011.256.017.383.017A4.143,4.143,0,0,0,121.478,179.3Zm6.172,4.676a4.074,4.074,0,0,0,.439-.023,4.163,4.163,0,0,0-.431-8.3,4.318,4.318,0,0,0-.439.023,4.163,4.163,0,0,0,.431,8.3Zm14.277-6.536a4.166,4.166,0,1,0-2.742,5.211A4.146,4.146,0,0,0,141.927,177.439Zm5.9-6.054a4.164,4.164,0,1,0,3.662,2.178A4.167,4.167,0,0,0,147.824,171.385Zm9.079-4.992a4.165,4.165,0,1,0,3.2,1.5A4.167,4.167,0,0,0,156.9,166.393Zm11.166.118a4.164,4.164,0,1,0-3.238,1.543A4.17,4.17,0,0,0,168.069,166.511ZM175,157.743a4.165,4.165,0,0,0-1.746-5.623,4.163,4.163,0,0,0-5.623,1.746,4.165,4.165,0,0,0,1.745,5.624A4.166,4.166,0,0,0,175,157.743Zm-.093-7.14a4.164,4.164,0,1,0-2.81-5.174A4.178,4.178,0,0,0,174.9,150.6Zm8.218-13.56a4.17,4.17,0,0,0-3.766-4.527c-.128-.012-.256-.017-.383-.017a4.163,4.163,0,0,0-.379,8.309c.13.012.258.018.386.018A4.142,4.142,0,0,0,183.12,137.043Zm.887-11.136a4.153,4.153,0,0,0-4.136-3.729,4.064,4.064,0,0,0-.439.024,4.163,4.163,0,0,0,.431,8.3,4.078,4.078,0,0,0,.439-.024A4.168,4.168,0,0,0,184.007,125.907Zm-6.513-13.838a4.157,4.157,0,1,0,1.236-.189A4.134,4.134,0,0,0,177.494,112.069Zm-1.887-1.737a4.163,4.163,0,1,0-3.662-2.177A4.172,4.172,0,0,0,175.607,110.332Zm-.849-12.861a4.163,4.163,0,1,0-1.484,2.821A4.138,4.138,0,0,0,174.758,97.471ZM159.805,89.6a4.164,4.164,0,1,0,6.761-3.671,4.163,4.163,0,0,0-6.761,3.671Zm-5.884-3.226a4.163,4.163,0,0,0,5.623-1.746,4.164,4.164,0,1,0-5.623,1.746Zm-6.072-12.452a4.164,4.164,0,1,0,2.809,5.174A4.178,4.178,0,0,0,147.849,73.918Zm-15.277.722a4.162,4.162,0,0,0,3.764,4.527c.13.012.259.017.386.017a4.164,4.164,0,0,0,.376-8.31c-.129-.011-.256-.017-.383-.017A4.142,4.142,0,0,0,132.572,74.64Zm7.79-16.324a2.365,2.365,0,1,0-1.859-2.781A2.365,2.365,0,0,0,140.362,58.316Zm-6-8a1.217,1.217,0,1,0-.956-1.431A1.217,1.217,0,0,0,134.357,50.314Z"/><path class="cls-2" d="M266.878,133.542c0,9.319-4.26,13.845-12.912,13.845a13.571,13.571,0,0,1-6.456-1.331v-7.189a11.83,11.83,0,0,0,5.325,1.265c3.66,0,5.657-2,5.657-5.791V98.6h8.386Z"/><path class="cls-2" d="M329.374,129.416c0,11.049-7.189,17.971-19.3,17.971-12.048,0-19.235-6.922-19.235-17.971V98.6h8.319v30.085c0,6.922,4.061,10.982,10.916,10.982,6.922,0,10.915-4.06,10.915-10.982V98.6h8.387Z"/><path class="cls-2" d="M361.717,129.017v17.5H353.33V98.6h15.176c10.649,0,17.372,5.458,17.372,15.242,0,9.718-6.723,15.176-17.372,15.176Zm0-23.363v16.307h7.188c5.191,0,8.52-2.862,8.52-8.12,0-5.324-3.461-8.187-8.853-8.187Z"/><path class="cls-2" d="M406.706,146.521V98.6h8.387v47.922Z"/><path class="cls-2" d="M457.154,105.654v40.867h-8.387V105.654H434.791V98.6h36.341v7.055Z"/><path class="cls-2" d="M490.829,146.521V98.6H520.98v7.055H499.216v13.179h18.436v6.855H499.216v13.778h22.763v7.055Z"/><path class="cls-2" d="M559.58,98.6c10.849,0,17.7,5.458,17.7,15.242a13.8,13.8,0,0,1-9.451,13.511l10.449,19.169H569.3l-9.185-17.771H551.66v17.771h-8.254V98.6Zm-7.92,7.055v16.307h8.386c5.391,0,8.852-2.862,8.852-8.12,0-5.324-3.594-8.187-9.251-8.187Z"/><path class="cls-2" d="M621.542,97.8c13.777,0,24.227,11.049,24.227,24.76,0,13.845-10.384,24.76-24.227,24.76s-24.228-10.915-24.228-24.76C597.314,108.915,607.7,97.8,621.542,97.8Zm0,45.926c11.914,0,20.233-9.252,20.233-21.166,0-11.847-8.319-21.166-20.233-21.166-11.848,0-20.3,9.319-20.3,21.166C601.241,134.474,609.694,143.726,621.542,143.726Z"/><path class="cls-2" d="M674.583,109.448a13.208,13.208,0,0,1-1.331-1.664c.066.8.133,1.8.133,3.062v35.675h-3.86V97.8h.067l31.282,37.872c.466.6,1.065,1.265,1.331,1.664-.067-.732-.067-1.8-.067-3.061V98.665h3.794V147.32h-.066Z"/><path class="cls-2" d="M733.349,146.521V98.6h28.42v3.261H737.21v18.77h20.9v3.262h-20.9V143.26h25.558v3.261Z"/></svg>