<?xml version="1.0" encoding="utf-8"?>
<!-- Generator: Adobe Illustrator 23.0.1, SVG Export Plug-In . SVG Version: 6.00 Build 0)  -->
<svg version="1.1" id="logo" xmlns="http://www.w3.org/2000/svg" xmlns:xlink="http://www.w3.org/1999/xlink" x="0px" y="0px"
	 viewBox="0 0 158.1 158.1" style="enable-background:new 0 0 158.1 158.1;" xml:space="preserve">
<style type="text/css">
	.st0{fill:url(#SVGID_1_);}
</style>
<title>J1-sym-color-light</title>
<linearGradient id="SVGID_1_" gradientUnits="userSpaceOnUse" x1="23.1591" y1="134.9776" x2="134.9765" y2="23.1602">
	<stop  offset="0" style="stop-color:#FFFFFF"/>
	<stop  offset="0.5" style="stop-color:#2ACCFF"/>
	<stop  offset="1" style="stop-color:#D8EC13"/>
</linearGradient>
<path class="st0" d="M78.8,9.1c1.3,0,2.4-1.1,2.4-2.4c0-1.3-1.1-2.4-2.4-2.4c-1.3,0-2.4,1.1-2.4,2.4c0,0,0,0,0,0
	C76.4,8.1,77.4,9.1,78.8,9.1C78.8,9.1,78.8,9.1,78.8,9.1z M71.3,2.5c0.7,0,1.2-0.5,1.2-1.2S72,0,71.3,0c-0.7,0-1.2,0.5-1.2,1.2
	C70.1,1.9,70.6,2.5,71.3,2.5L71.3,2.5z M65.1,10.5c1.3-0.3,2.1-1.5,1.9-2.8c-0.3-1.3-1.5-2.1-2.8-1.9c-1.3,0.3-2.1,1.5-1.9,2.8
	c0,0,0,0,0,0C62.6,10,63.8,10.8,65.1,10.5C65.1,10.5,65.1,10.5,65.1,10.5L65.1,10.5z M56.5,5.4c0.7-0.1,1.1-0.8,1-1.4
	c-0.1-0.7-0.8-1.1-1.4-1c-0.7,0.1-1.1,0.8-1,1.4c0,0,0,0,0,0C55.2,5.1,55.8,5.6,56.5,5.4z M52,14.6c1.2-0.5,1.8-1.9,1.3-3.1
	c-0.5-1.2-1.9-1.8-3.1-1.3c-1.2,0.5-1.8,1.9-1.3,3.1C49.4,14.5,50.8,15.1,52,14.6C52,14.6,52,14.6,52,14.6z M42.6,11.3
	c0.6-0.3,0.9-1,0.7-1.6C43,9,42.3,8.8,41.6,9c-0.6,0.3-0.9,1-0.7,1.6C41.2,11.2,42,11.5,42.6,11.3C42.6,11.3,42.6,11.3,42.6,11.3z
	 M40,21.1c1.1-0.7,1.4-2.2,0.7-3.3c-0.7-1.1-2.2-1.4-3.3-0.7c-1.1,0.7-1.4,2.2-0.7,3.3C37.4,21.5,38.9,21.8,40,21.1
	C40,21.1,40,21.1,40,21.1z M30.1,19.7c0.6-0.4,0.7-1.1,0.3-1.7c-0.4-0.6-1.1-0.7-1.7-0.3c-0.6,0.4-0.7,1.1-0.3,1.7c0,0,0,0,0,0
	C28.7,19.9,29.5,20,30.1,19.7L30.1,19.7z M29.4,29.8c0.9-0.9,0.9-2.4,0-3.3c-0.9-0.9-2.4-0.9-3.3,0c-0.9,0.9-0.9,2.4,0,3.3
	C27,30.8,28.5,30.8,29.4,29.8L29.4,29.8z M19.4,30.4c0.5-0.5,0.5-1.2,0-1.7s-1.2-0.5-1.7,0s-0.5,1.2,0,1.7c0,0,0,0,0,0
	C18.2,30.9,18.9,30.9,19.4,30.4L19.4,30.4z M17.5,41.1c1.1,0.7,2.6,0.4,3.3-0.7s0.4-2.6-0.7-3.3c-1.1-0.7-2.6-0.4-3.3,0.7
	c0,0,0,0,0,0C16.1,38.9,16.4,40.4,17.5,41.1z M11.1,43c0.4-0.6,0.2-1.3-0.3-1.7C10.2,40.9,9.4,41,9,41.6c-0.4,0.6-0.2,1.3,0.3,1.7
	c0,0,0,0,0,0C9.9,43.7,10.7,43.5,11.1,43C11.1,43,11.1,43,11.1,43z M10,50.8c-0.5,1.2,0.1,2.6,1.3,3.1c1.2,0.5,2.6-0.1,3.1-1.3
	c0.5-1.2-0.1-2.6-1.3-3.1c0,0,0,0,0,0C11.8,49,10.5,49.6,10,50.8z M3.7,57.6c0.6,0.3,1.3,0,1.6-0.7c0.3-0.6,0-1.3-0.7-1.6
	s-1.3,0-1.6,0.7c0,0,0,0,0,0C2.8,56.6,3.1,57.3,3.7,57.6L3.7,57.6z M7.6,67.6c1.3,0.3,2.5-0.6,2.8-1.9s-0.6-2.5-1.9-2.8
	c-1.3-0.3-2.5,0.6-2.8,1.9c0,0,0,0,0,0C5.5,66.1,6.4,67.3,7.6,67.6z M1,72.7c0.7,0.1,1.3-0.3,1.4-1s-0.3-1.3-1-1.4s-1.3,0.3-1.4,1
	c0,0,0,0,0,0C-0.1,71.9,0.3,72.6,1,72.7z M4.4,79.4c0,1.3,1.1,2.4,2.4,2.4c1.3,0,2.4-1.1,2.4-2.4c0-1.3-1.1-2.4-2.4-2.4c0,0,0,0,0,0
	C5.5,77,4.4,78.1,4.4,79.4z M1.2,85.6c-0.7,0-1.2,0.5-1.2,1.2C0,87.5,0.6,88,1.2,88c0.7,0,1.2-0.5,1.2-1.2S1.9,85.6,1.2,85.6
	C1.2,85.6,1.2,85.6,1.2,85.6z M10.5,93c-0.3-1.3-1.5-2.1-2.8-1.9c-1.3,0.3-2.1,1.5-1.9,2.8c0.3,1.3,1.5,2.1,2.8,1.9
	C10,95.5,10.8,94.3,10.5,93C10.5,93,10.5,93,10.5,93L10.5,93z M4,100.7c-0.7,0.1-1.1,0.8-1,1.4c0.1,0.7,0.8,1.1,1.4,1
	c0.7-0.1,1.1-0.8,1-1.4c0,0,0,0,0,0C5.3,101,4.7,100.5,4,100.7C4,100.7,4,100.7,4,100.7L4,100.7z M11.5,104.8
	c-1.2,0.5-1.8,1.9-1.3,3.1s1.9,1.8,3.1,1.3c1.2-0.5,1.8-1.9,1.3-3.1C14.1,104.9,12.7,104.3,11.5,104.8L11.5,104.8z M9.7,114.9
	c-0.6,0.3-0.9,1-0.7,1.6c0.3,0.6,1,0.9,1.6,0.7c0.6-0.3,0.9-1,0.7-1.6C11,114.9,10.3,114.6,9.7,114.9C9.7,114.9,9.7,114.9,9.7,114.9
	z M17.8,117.5c-1.1,0.7-1.4,2.2-0.7,3.3c0.7,1.1,2.2,1.4,3.3,0.7c1.1-0.7,1.4-2.2,0.7-3.3C20.4,117.1,18.9,116.8,17.8,117.5
	C17.8,117.5,17.8,117.5,17.8,117.5L17.8,117.5z M18,127.8c-0.6,0.4-0.7,1.1-0.3,1.7c0.4,0.6,1.1,0.7,1.7,0.3
	c0.6-0.4,0.7-1.1,0.3-1.7C19.3,127.5,18.5,127.4,18,127.8C18,127.7,18,127.7,18,127.8L18,127.8z M28.7,138.7c-0.5,0.5-0.5,1.2,0,1.7
	s1.2,0.5,1.7,0c0.5-0.5,0.5-1.2,0-1.7c0,0,0,0,0,0C29.9,138.3,29.1,138.3,28.7,138.7L28.7,138.7z M40.5,137.4
	c-1.1-0.7-2.6-0.4-3.3,0.7c-0.7,1.1-0.4,2.6,0.7,3.3c1.1,0.7,2.6,0.4,3.3-0.7C41.9,139.6,41.6,138.1,40.5,137.4
	C40.5,137.4,40.5,137.4,40.5,137.4L40.5,137.4z M41.3,147.4c-0.4,0.6-0.2,1.3,0.3,1.7c0.6,0.4,1.3,0.2,1.7-0.3s0.2-1.3-0.3-1.7
	c0,0,0,0,0,0C42.4,146.7,41.6,146.9,41.3,147.4C41.3,147.4,41.3,147.4,41.3,147.4L41.3,147.4z M52.6,143.8c-1.2-0.5-2.6,0.1-3.1,1.3
	s0.1,2.6,1.3,3.1c1.2,0.5,2.6-0.1,3.1-1.3c0,0,0,0,0,0C54.4,145.7,53.8,144.3,52.6,143.8C52.6,143.8,52.6,143.8,52.6,143.8z
	 M56.9,152.8c-0.6-0.3-1.3,0-1.6,0.7c-0.3,0.6,0,1.3,0.7,1.6c0.6,0.3,1.3,0,1.6-0.7C57.8,153.8,57.5,153.1,56.9,152.8
	C56.9,152.8,56.9,152.8,56.9,152.8L56.9,152.8z M65.7,147.7c-1.3-0.3-2.5,0.6-2.8,1.9c-0.3,1.3,0.6,2.5,1.9,2.8
	c1.3,0.3,2.5-0.6,2.8-1.9c0,0,0,0,0,0C67.8,149.2,67,148,65.7,147.7z M71.7,155.7c-0.7-0.1-1.3,0.3-1.4,1c-0.1,0.7,0.3,1.3,1,1.4
	c0.7,0.1,1.3-0.3,1.4-1c0,0,0,0,0,0C72.8,156.5,72.4,155.9,71.7,155.7L71.7,155.7z M79.4,149c-1.3,0-2.4,1.1-2.4,2.4
	c0,1.3,1.1,2.4,2.4,2.4s2.4-1.1,2.4-2.4S80.7,149,79.4,149L79.4,149z M86.8,155.7c-0.7,0-1.2,0.5-1.2,1.2c0,0.7,0.5,1.2,1.2,1.2
	c0.7,0,1.2-0.5,1.2-1.2l0,0C88,156.2,87.5,155.7,86.8,155.7L86.8,155.7z M93,147.6c-1.3,0.3-2.1,1.5-1.9,2.8
	c0.3,1.3,1.5,2.1,2.8,1.9c1.3-0.3,2.1-1.5,1.9-2.8c0,0,0,0,0,0C95.5,148.2,94.3,147.3,93,147.6L93,147.6z M101.6,152.7
	c-0.7,0.1-1.1,0.8-1,1.4s0.8,1.1,1.4,1c0.7-0.1,1.1-0.8,1-1.4c0,0,0,0,0,0C102.9,153,102.3,152.6,101.6,152.7
	C101.6,152.7,101.6,152.7,101.6,152.7L101.6,152.7z M106.1,143.6c-1.2,0.5-1.8,1.9-1.3,3.1c0.5,1.2,1.9,1.8,3.1,1.3
	c1.2-0.5,1.8-1.9,1.3-3.1c0,0,0,0,0,0C108.7,143.6,107.3,143.1,106.1,143.6C106.1,143.6,106.1,143.6,106.1,143.6L106.1,143.6z
	 M115.6,146.9c-0.6,0.3-0.9,1-0.7,1.6c0.3,0.6,1,0.9,1.6,0.7c0.6-0.3,0.9-1,0.7-1.6C116.9,146.9,116.2,146.6,115.6,146.9
	C115.6,146.9,115.6,146.9,115.6,146.9L115.6,146.9z M118.2,137c-1.1,0.7-1.4,2.2-0.7,3.3c0.7,1.1,2.2,1.4,3.3,0.7
	c1.1-0.7,1.4-2.2,0.7-3.3C120.7,136.6,119.3,136.3,118.2,137C118.2,137,118.2,137,118.2,137L118.2,137z M128.1,138.5
	c-0.6,0.4-0.7,1.1-0.3,1.7c0.4,0.6,1.1,0.7,1.7,0.3s0.7-1.1,0.3-1.7c0,0,0,0,0,0C129.4,138.2,128.6,138.1,128.1,138.5
	C128.1,138.5,128.1,138.5,128.1,138.5L128.1,138.5z M128.7,128.3c-0.9,0.9-0.9,2.4,0,3.3c0.9,0.9,2.4,0.9,3.3,0
	c0.9-0.9,0.9-2.4,0-3.3C131.2,127.4,129.7,127.4,128.7,128.3C128.7,128.3,128.7,128.3,128.7,128.3L128.7,128.3z M138.7,127.8
	c-0.5,0.5-0.5,1.2,0,1.7s1.2,0.5,1.7,0c0.5-0.5,0.5-1.2,0-1.7c0,0,0,0,0,0C140,127.3,139.2,127.3,138.7,127.8L138.7,127.8z
	 M140.7,117c-1.1-0.7-2.6-0.4-3.3,0.7c-0.7,1.1-0.4,2.6,0.7,3.3s2.6,0.4,3.3-0.7c0,0,0,0,0,0C142,119.2,141.8,117.7,140.7,117
	L140.7,117z M147.1,115.2c-0.4,0.6-0.2,1.3,0.3,1.7c0.6,0.4,1.3,0.2,1.7-0.3c0.4-0.6,0.2-1.3-0.3-1.7c0,0,0,0,0,0
	C148.2,114.5,147.5,114.6,147.1,115.2L147.1,115.2z M148.2,107.4c0.5-1.2-0.1-2.6-1.3-3.1c-1.2-0.5-2.6,0.1-3.1,1.3
	c-0.5,1.2,0.1,2.6,1.3,3.1C146.3,109.1,147.7,108.6,148.2,107.4C148.2,107.4,148.2,107.4,148.2,107.4L148.2,107.4z M154.4,100.6
	c-0.6-0.3-1.3,0-1.6,0.7c-0.3,0.6,0,1.3,0.7,1.6c0.6,0.3,1.3,0,1.6-0.7c0,0,0,0,0,0C155.3,101.5,155,100.8,154.4,100.6L154.4,100.6z
	 M150.5,90.5c-1.3-0.3-2.5,0.6-2.8,1.9c-0.3,1.3,0.6,2.5,1.9,2.8c1.3,0.3,2.5-0.6,2.8-1.9c0,0,0,0,0,0
	C152.6,92,151.8,90.8,150.5,90.5z M157.2,85.4c-0.7-0.1-1.3,0.3-1.4,1s0.3,1.3,1,1.4s1.3-0.3,1.4-1c0,0,0,0,0,0
	C158.2,86.2,157.8,85.6,157.2,85.4C157.2,85.4,157.2,85.4,157.2,85.4L157.2,85.4z M149,78.8c0,1.3,1.1,2.4,2.4,2.4
	c1.3,0,2.4-1.1,2.4-2.4s-1.1-2.4-2.4-2.4S149,77.4,149,78.8L149,78.8z M156.9,72.5c0.7,0,1.2-0.5,1.2-1.2s-0.5-1.2-1.2-1.2
	c-0.7,0-1.2,0.5-1.2,1.2C155.7,72,156.2,72.5,156.9,72.5C156.9,72.5,156.9,72.5,156.9,72.5z M147.6,65.1c0.3,1.3,1.5,2.1,2.8,1.9
	c1.3-0.3,2.1-1.5,1.9-2.8c-0.3-1.3-1.5-2.1-2.8-1.9c0,0,0,0,0,0C148.2,62.6,147.3,63.8,147.6,65.1L147.6,65.1z M154.1,57.5
	c0.7-0.1,1.1-0.8,1-1.4c-0.1-0.7-0.8-1.1-1.4-1c-0.7,0.1-1.1,0.8-1,1.4c0,0,0,0,0,0C152.8,57.2,153.5,57.6,154.1,57.5L154.1,57.5z
	 M146.7,53.3c1.2-0.5,1.8-1.9,1.3-3.1c-0.5-1.2-1.9-1.8-3.1-1.3s-1.8,1.9-1.3,3.1C144.1,53.2,145.4,53.8,146.7,53.3L146.7,53.3z
	 M148.5,43.2c0.6-0.3,0.9-1,0.7-1.6c-0.3-0.6-1-0.9-1.6-0.7c-0.6,0.3-0.9,1-0.7,1.6C147.1,43.2,147.8,43.5,148.5,43.2L148.5,43.2z
	 M140.3,40.6c1.1-0.7,1.4-2.2,0.7-3.3c-0.7-1.1-2.2-1.4-3.3-0.7s-1.4,2.2-0.7,3.3c0,0,0,0,0,0C137.8,41,139.2,41.3,140.3,40.6
	L140.3,40.6z M140.1,30.4c0.6-0.4,0.7-1.1,0.3-1.7c-0.4-0.6-1.1-0.7-1.7-0.3c-0.6,0.4-0.7,1.1-0.3,1.7
	C138.8,30.6,139.6,30.8,140.1,30.4L140.1,30.4z M128.3,29.4c0.9,0.9,2.4,0.9,3.3,0c0.9-0.9,0.9-2.4,0-3.3c-0.9-0.9-2.4-0.9-3.3,0
	C127.4,27,127.4,28.5,128.3,29.4L128.3,29.4z M129.5,19.4c0.5-0.5,0.5-1.2,0-1.7c-0.5-0.5-1.2-0.5-1.7,0c-0.5,0.5-0.5,1.2,0,1.7
	c0,0,0,0,0,0C128.2,19.9,129,19.9,129.5,19.4L129.5,19.4z M117.7,20.7c1.1,0.7,2.6,0.4,3.3-0.7s0.4-2.6-0.7-3.3
	c-1.1-0.7-2.6-0.4-3.3,0.7C116.3,18.6,116.6,20,117.7,20.7L117.7,20.7z M116.9,10.7c0.4-0.6,0.2-1.3-0.3-1.7s-1.3-0.2-1.7,0.3
	s-0.2,1.3,0.3,1.7c0,0,0,0,0,0C115.7,11.4,116.5,11.3,116.9,10.7C116.9,10.7,116.9,10.7,116.9,10.7L116.9,10.7z M105.5,14.3
	c1.2,0.5,2.6-0.1,3.1-1.3c0.5-1.2-0.1-2.6-1.3-3.1c-1.2-0.5-2.6,0.1-3.1,1.3C103.8,12.5,104.3,13.8,105.5,14.3L105.5,14.3z
	 M101.2,5.3c0.6,0.3,1.3,0,1.6-0.7s0-1.3-0.7-1.6s-1.3,0-1.6,0.7c0,0,0,0,0,0C100.3,4.3,100.6,5.1,101.2,5.3L101.2,5.3z M84.9,19.8
	c2.1,0,3.7-1.7,3.7-3.7s-1.7-3.7-3.7-3.7c-2.1,0-3.7,1.7-3.7,3.7C81.2,18.1,82.9,19.8,84.9,19.8C84.9,19.8,84.9,19.8,84.9,19.8z
	 M73.3,19.8c2-0.4,3.3-2.4,2.9-4.4s-2.4-3.3-4.4-2.9s-3.3,2.4-2.9,4.4c0,0,0,0,0,0C69.3,18.9,71.2,20.2,73.3,19.8L73.3,19.8z
	 M56.9,20.1c0.8,1.9,3,2.8,4.9,2c1.9-0.8,2.8-3,2-4.9c-0.8-1.9-3-2.8-4.9-2C57.1,16,56.1,18.1,56.9,20.1L56.9,20.1z M51,26.5
	c1.7-1.1,2.2-3.5,1-5.2s-3.5-2.2-5.2-1c-1.7,1.1-2.2,3.5-1,5.2C47,27.2,49.3,27.7,51,26.5L51,26.5z M41.3,33c1.5-1.5,1.5-3.8,0-5.3
	c-1.5-1.5-3.8-1.5-5.3,0c-1.5,1.5-1.5,3.8,0,5.3C37.5,34.5,39.9,34.5,41.3,33L41.3,33z M26.8,37.1c-1.1,1.7-0.7,4,1,5.2
	c1.7,1.1,4,0.7,5.2-1s0.7-4-1-5.2c0,0,0,0,0,0C30.3,34.9,28,35.4,26.8,37.1C26.8,37.1,26.8,37.1,26.8,37.1z M19.7,48.1
	c-0.8,1.9,0.1,4.1,2,4.9s4.1-0.1,4.9-2c0.8-1.9-0.1-4.1-2-4.9c0,0,0,0,0,0C22.6,45.3,20.5,46.2,19.7,48.1z M17.7,64.7
	c2,0.4,4-0.9,4.4-2.9c0.4-2-0.9-4-2.9-4.4c-2-0.4-4,0.9-4.4,2.9c0,0,0,0,0,0C14.4,62.3,15.7,64.3,17.7,64.7z M19.8,73.2
	c0-2.1-1.7-3.7-3.7-3.7s-3.7,1.7-3.7,3.7s1.7,3.7,3.7,3.7C18.1,76.9,19.8,75.3,19.8,73.2C19.8,73.2,19.8,73.2,19.8,73.2L19.8,73.2z
	 M16.9,89.3c2-0.4,3.3-2.4,2.9-4.4c-0.4-2-2.4-3.3-4.4-2.9c-2,0.4-3.3,2.4-2.9,4.4C12.9,88.4,14.8,89.7,16.9,89.3L16.9,89.3z
	 M20,101.2c1.9-0.8,2.8-3,2-4.9c-0.8-1.9-3-2.8-4.9-2c-1.9,0.8-2.8,3-2,4.9c0,0,0,0,0,0C16,101.1,18.1,102,20,101.2
	C20,101.2,20,101.2,20,101.2z M26.5,107.1c-1.1-1.7-3.5-2.2-5.2-1c-1.7,1.1-2.2,3.5-1,5.2c1.1,1.7,3.5,2.2,5.2,1
	C27.2,111.1,27.7,108.8,26.5,107.1C26.5,107.1,26.5,107.1,26.5,107.1L26.5,107.1z M27.7,116.8c-1.5,1.5-1.5,3.8,0,5.3
	c1.5,1.5,3.8,1.5,5.3,0c1.5-1.5,1.5-3.8,0-5.3C31.6,115.4,29.2,115.4,27.7,116.8C27.7,116.8,27.7,116.8,27.7,116.8L27.7,116.8z
	 M42.3,130.3c1.1-1.7,0.7-4-1-5.2c-1.7-1.1-4-0.7-5.2,1c-1.1,1.7-0.7,4,1,5.2c0,0,0,0,0,0C38.8,132.4,41.1,132,42.3,130.3z
	 M53,136.4c0.8-1.9-0.1-4.1-2-4.9c-1.9-0.8-4.1,0.1-4.9,2c-0.8,1.9,0.1,4.1,2,4.9c0,0,0,0,0,0C50,139.3,52.2,138.4,53,136.4z
	 M64.7,140.4c0.4-2-0.9-4-2.9-4.4c-2-0.4-4,0.9-4.4,2.9c-0.4,2,0.9,4,2.9,4.4C62.3,143.8,64.3,142.5,64.7,140.4L64.7,140.4z
	 M73.2,138.3c-2.1,0-3.7,1.7-3.7,3.7s1.7,3.7,3.7,3.7c2.1,0,3.7-1.7,3.7-3.7C76.9,140,75.3,138.3,73.2,138.3
	C73.2,138.3,73.2,138.3,73.2,138.3L73.2,138.3z M84.9,138.3c-2,0.4-3.3,2.4-2.9,4.4s2.4,3.3,4.4,2.9c2-0.4,3.3-2.4,2.9-4.4
	C88.9,139.2,86.9,137.9,84.9,138.3C84.9,138.3,84.9,138.3,84.9,138.3L84.9,138.3z M101.2,138.1c-0.8-1.9-3-2.8-4.9-2
	c-1.9,0.8-2.8,3-2,4.9c0.8,1.9,3,2.8,4.9,2c0,0,0,0,0,0C101.1,142.2,102,140,101.2,138.1L101.2,138.1z M107.1,131.6
	c-1.7,1.1-2.2,3.5-1,5.2s3.5,2.2,5.2,1c1.7-1.1,2.2-3.5,1-5.2C111.2,130.9,108.8,130.5,107.1,131.6
	C107.1,131.6,107.1,131.6,107.1,131.6L107.1,131.6z M116.8,125.1c-1.5,1.5-1.5,3.8,0,5.3c1.5,1.5,3.8,1.5,5.3,0s1.5-3.8,0-5.3
	c0,0,0,0,0,0C120.6,123.7,118.3,123.7,116.8,125.1C116.8,125.1,116.8,125.1,116.8,125.1L116.8,125.1z M131.3,121
	c1.1-1.7,0.7-4-1-5.2c-1.7-1.1-4-0.7-5.2,1s-0.7,4,1,5.2c0,0,0,0,0,0C127.8,123.2,130.1,122.7,131.3,121L131.3,121z M138.5,110
	c0.8-1.9-0.1-4.1-2-4.9c-1.9-0.8-4.1,0.1-4.9,2c-0.8,1.9,0.1,4.1,2,4.9c0,0,0,0,0,0C135.5,112.8,137.7,111.9,138.5,110L138.5,110z
	 M140.4,93.4c-2-0.4-4,0.9-4.4,2.9c-0.4,2,0.9,4,2.9,4.4c2,0.4,4-0.9,4.4-2.9c0,0,0,0,0,0C143.8,95.8,142.5,93.9,140.4,93.4
	C140.4,93.5,140.4,93.5,140.4,93.4L140.4,93.4z M142.1,88.7c2.1,0,3.7-1.7,3.7-3.7c0-2.1-1.7-3.7-3.7-3.7c-2.1,0-3.7,1.7-3.7,3.7
	c0,0,0,0,0,0C138.3,87,140,88.7,142.1,88.7C142.1,88.7,142.1,88.7,142.1,88.7L142.1,88.7z M142.7,76.2c2-0.4,3.3-2.4,2.9-4.4
	c-0.4-2-2.4-3.3-4.4-2.9c-2,0.4-3.3,2.4-2.9,4.4C138.7,75.3,140.7,76.6,142.7,76.2L142.7,76.2z M138.1,56.9c-1.9,0.8-2.8,3-2,4.9
	c0.8,1.9,3,2.8,4.9,2c1.9-0.8,2.8-3,2-4.9C142.2,57,140,56.1,138.1,56.9C138.1,56.9,138.1,56.9,138.1,56.9L138.1,56.9z M131.6,51
	c1.1,1.7,3.5,2.2,5.2,1c1.7-1.1,2.2-3.5,1-5.2s-3.5-2.2-5.2-1c0,0,0,0,0,0C130.9,47,130.5,49.3,131.6,51z M130.4,41.3
	c1.5-1.5,1.5-3.8,0-5.3s-3.8-1.5-5.3,0c-1.5,1.5-1.5,3.8,0,5.3C126.6,42.8,128.9,42.8,130.4,41.3C130.4,41.3,130.4,41.3,130.4,41.3z
	 M115.8,27.9c-1.1,1.7-0.7,4,1,5.2c1.7,1.1,4,0.7,5.2-1c1.1-1.7,0.7-4-1-5.2c0,0,0,0,0,0C119.3,25.7,117,26.2,115.8,27.9
	C115.8,27.9,115.8,27.9,115.8,27.9z M105.1,21.7c-0.8,1.9,0.1,4.1,2,4.9c1.9,0.8,4.1-0.1,4.9-2c0.8-1.9-0.1-4.1-2-4.9
	C108.1,18.9,105.9,19.8,105.1,21.7z M93.5,17.7c-0.4,2,0.9,4,2.9,4.4c2,0.4,4-0.9,4.4-2.9c0.4-2-0.9-4-2.9-4.4c0,0,0,0,0,0
	C95.8,14.4,93.9,15.7,93.5,17.7C93.5,17.7,93.5,17.7,93.5,17.7z M78.9,30.4c2.3-0.3,3.9-2.3,3.7-4.6c-0.2-2.1-2-3.7-4.1-3.7
	c-0.1,0-0.3,0-0.4,0c-2.3,0.3-3.9,2.3-3.7,4.6c0.2,2.1,2,3.7,4.1,3.7C78.6,30.4,78.7,30.4,78.9,30.4z M64.2,28.6
	c0.7,2.2,3,3.4,5.2,2.7c2.2-0.7,3.4-3,2.7-5.2c-0.7-2.2-3-3.4-5.2-2.7C64.7,24.1,63.5,26.4,64.2,28.6C64.2,28.6,64.2,28.6,64.2,28.6
	z M58.3,34.7c2.3,0,4.2-1.9,4.2-4.2c0-2.3-1.9-4.2-4.2-4.2s-4.2,1.9-4.2,4.2c0,0.7,0.2,1.4,0.5,2C55.3,33.8,56.7,34.7,58.3,34.7
	L58.3,34.7z M49.2,39.6c2.3,0,4.2-1.9,4.2-4.2s-1.9-4.2-4.2-4.2S45,33.2,45,35.5c0,1,0.3,1.9,1,2.7C46.8,39.1,48,39.6,49.2,39.6
	L49.2,39.6z M38,39.5c-1.4,1.8-1.2,4.4,0.6,5.9c0,0,0,0,0,0c1.8,1.4,4.4,1.2,5.9-0.6c1.4-1.8,1.2-4.4-0.6-5.9
	C42.1,37.5,39.5,37.7,38,39.5z M31.1,48.3c-1.1,2-0.3,4.6,1.7,5.6c2,1.1,4.6,0.3,5.6-1.7c1.1-2,0.3-4.6-1.7-5.6
	c-0.6-0.3-1.3-0.5-1.9-0.5C33.2,46.1,31.8,46.9,31.1,48.3z M28.8,63.4c2.2,0.7,4.5-0.6,5.2-2.8s-0.6-4.5-2.8-5.2
	C29,54.8,26.7,56,26,58.2c0,0,0,0,0,0C25.4,60.4,26.6,62.8,28.8,63.4C28.8,63.4,28.8,63.4,28.8,63.4z M23,69
	c-0.2,2.3,1.5,4.3,3.8,4.5c0.1,0,0.3,0,0.4,0c2.3,0,4.2-1.9,4.2-4.2c0-2.1-1.6-3.9-3.8-4.1c-0.1,0-0.3,0-0.4,0
	C25,65.2,23.2,66.8,23,69z M22.1,80.1c0.2,2.1,2,3.7,4.1,3.7c0.1,0,0.3,0,0.4,0c2.3-0.3,3.9-2.3,3.7-4.6c-0.2-2.1-2-3.7-4.1-3.7
	c-0.1,0-0.3,0-0.4,0C23.5,75.8,21.8,77.8,22.1,80.1C22.1,80.1,22.1,80.1,22.1,80.1L22.1,80.1z M27.4,94.2c2.3,0,4.2-1.9,4.2-4.2
	c0-2.3-1.9-4.2-4.2-4.2c-2.3,0-4.2,1.9-4.2,4.2c0,0.4,0.1,0.8,0.2,1.2C23.9,93,25.5,94.2,27.4,94.2z M30.5,104
	c2.3,0,4.2-1.9,4.2-4.2c0-2.3-1.9-4.2-4.2-4.2s-4.2,1.9-4.2,4.2c0,0.7,0.2,1.4,0.5,2C27.6,103.2,29,104,30.5,104z M35.5,113.1
	c2.3,0,4.2-1.9,4.2-4.2c0-2.3-1.9-4.2-4.2-4.2c-2.3,0-4.2,1.9-4.2,4.2c0,1,0.3,1.9,1,2.7C33.1,112.6,34.2,113.1,35.5,113.1z
	 M44.8,113.6c-1.8-1.4-4.4-1.2-5.9,0.6c-1.4,1.8-1.2,4.4,0.6,5.9c1.8,1.4,4.4,1.2,5.9-0.6c0,0,0,0,0,0
	C46.8,117.7,46.5,115.1,44.8,113.6z M52.2,119.7c-2-1.1-4.6-0.3-5.6,1.7c0,0,0,0,0,0c-1.1,2-0.3,4.6,1.7,5.6c0,0,0,0,0,0
	c2,1.1,4.6,0.3,5.6-1.7c0,0,0,0,0,0C55,123.3,54.2,120.7,52.2,119.7C52.2,119.7,52.2,119.7,52.2,119.7z M60.6,124.1
	c-2.2-0.7-4.5,0.6-5.2,2.8s0.6,4.5,2.8,5.2c0.4,0.1,0.8,0.2,1.2,0.2c1.8,0,3.5-1.2,4-3C64.1,127.1,62.8,124.8,60.6,124.1
	C60.6,124.1,60.6,124.1,60.6,124.1z M73.5,131.4c0.2-2.3-1.5-4.3-3.8-4.5c-0.1,0-0.3,0-0.4,0c-2.3,0-4.2,1.9-4.2,4.2
	c0,2.2,1.6,4,3.8,4.1c0.1,0,0.3,0,0.4,0C71.5,135.2,73.3,133.5,73.5,131.4z M79.7,136.1c0.1,0,0.3,0,0.4,0c2.3-0.3,3.9-2.3,3.7-4.6
	c-0.2-2.1-2-3.7-4.1-3.7c-0.1,0-0.3,0-0.4,0c-2.3,0.3-3.9,2.3-3.7,4.6C75.8,134.5,77.6,136.1,79.7,136.1z M94,129.5
	c-0.7-2.2-3-3.4-5.2-2.7c-2.2,0.7-3.4,3-2.7,5.2c0.7,2.2,3,3.4,5.2,2.7c0,0,0,0,0,0C93.4,134.1,94.6,131.8,94,129.5
	C94,129.6,94,129.5,94,129.5L94,129.5z M99.9,123.5c-2.3,0-4.2,1.9-4.2,4.2s1.9,4.2,4.2,4.2s4.2-1.9,4.2-4.2c0-0.7-0.2-1.4-0.5-2
	C102.8,124.3,101.4,123.5,99.9,123.5L99.9,123.5z M108.9,118.5c-2.3,0-4.2,1.9-4.2,4.2c0,2.3,1.9,4.2,4.2,4.2c2.3,0,4.2-1.9,4.2-4.2
	c0-1-0.3-1.9-1-2.7C111.4,119,110.2,118.5,108.9,118.5L108.9,118.5z M120.1,118.6c1.4-1.8,1.2-4.4-0.6-5.9c-1.8-1.4-4.4-1.2-5.9,0.6
	c-1.4,1.8-1.2,4.4,0.6,5.9c0.7,0.6,1.7,0.9,2.6,0.9C118.1,120.2,119.3,119.6,120.1,118.6L120.1,118.6z M127,109.8
	c1.1-2,0.3-4.6-1.7-5.6c0,0,0,0,0,0c-2-1.1-4.6-0.3-5.6,1.7c0,0,0,0,0,0c-1.1,2-0.3,4.6,1.7,5.6S126,111.9,127,109.8L127,109.8z
	 M126.9,102.7c2.2,0.7,4.5-0.6,5.2-2.8c0.7-2.2-0.6-4.5-2.8-5.2s-4.5,0.6-5.2,2.8c0,0,0,0,0,0C123.5,99.7,124.7,102,126.9,102.7
	L126.9,102.7z M135.2,89.1c0.2-2.3-1.5-4.3-3.8-4.5c-0.1,0-0.3,0-0.4,0c-2.3,0-4.2,1.9-4.2,4.2c0,2.1,1.6,3.9,3.8,4.1
	c0.1,0,0.3,0,0.4,0C133.2,92.9,135,91.3,135.2,89.1L135.2,89.1z M136,78c-0.2-2.1-2-3.7-4.1-3.7c-0.1,0-0.3,0-0.4,0
	c-2.3,0.3-3.9,2.3-3.7,4.6c0.2,2.1,2,3.7,4.1,3.7c0.1,0,0.3,0,0.4,0C134.6,82.3,136.3,80.3,136,78z M129.5,64.2
	c-2.2,0.7-3.4,3-2.7,5.2s3,3.4,5.2,2.7c2.2-0.7,3.4-3,2.7-5.2c-0.5-1.7-2.2-2.9-4-2.9C130.4,64,129.9,64,129.5,64.2L129.5,64.2z
	 M127.6,62.4c2.3,0,4.2-1.9,4.2-4.2s-1.9-4.2-4.2-4.2c-0.7,0-1.4,0.2-2,0.5c-2,1.1-2.8,3.6-1.7,5.6
	C124.7,61.6,126.1,62.4,127.6,62.4z M126.8,49.6c0.2-2.3-1.5-4.3-3.8-4.5c-2.3-0.2-4.3,1.5-4.5,3.8s1.5,4.3,3.8,4.5
	c1.1,0.1,2.2-0.2,3-0.9C126.2,51.7,126.7,50.7,126.8,49.6z M111.8,41.7c0.1,1.1,0.7,2.1,1.5,2.8c1.8,1.4,4.4,1.2,5.9-0.6
	c1.4-1.8,1.2-4.4-0.6-5.9c-1.8-1.4-4.4-1.2-5.9,0.6C112.1,39.5,111.7,40.6,111.8,41.7z M106,38.5c2,1.1,4.6,0.3,5.6-1.7
	c1.1-2,0.3-4.5-1.7-5.6c-2-1.1-4.6-0.3-5.6,1.7S103.9,37.4,106,38.5L106,38.5z M99.9,26c-2.2-0.7-4.5,0.6-5.2,2.8c0,0,0,0,0,0
	c-0.7,2.2,0.6,4.5,2.8,5.2c0,0,0,0,0,0c2.2,0.6,4.5-0.7,5.1-2.9C103.3,28.9,102,26.7,99.9,26L99.9,26z M84.6,26.7
	c-0.2,2.3,1.5,4.3,3.8,4.5c0.1,0,0.3,0,0.4,0c2.3,0,4.2-1.9,4.2-4.2c0-2.1-1.6-3.9-3.8-4.1c-0.1,0-0.3,0-0.4,0
	C86.6,22.9,84.8,24.6,84.6,26.7z M92.4,10.4c1.3,0.3,2.5-0.6,2.8-1.9S94.6,6,93.3,5.8c-1.3-0.3-2.5,0.6-2.8,1.9
	C90.3,8.9,91.1,10.2,92.4,10.4C92.4,10.4,92.4,10.4,92.4,10.4z M86.4,2.4c0.7,0.1,1.3-0.3,1.4-1s-0.3-1.3-1-1.4
	c-0.7-0.1-1.3,0.3-1.4,1C85.3,1.6,85.7,2.3,86.4,2.4C86.4,2.4,86.4,2.4,86.4,2.4L86.4,2.4z M29.5,128.4c-1.1-0.7-2.6-0.4-3.3,0.7
	c-0.7,1.1-0.4,2.6,0.7,3.3c1.1,0.7,2.6,0.4,3.3-0.7C30.9,130.6,30.6,129.2,29.5,128.4C29.5,128.4,29.5,128.4,29.5,128.4L29.5,128.4z
	"/>
</svg>
