<svg id="Layer_1" data-name="Layer 1" xmlns="http://www.w3.org/2000/svg" xmlns:xlink="http://www.w3.org/1999/xlink" viewBox="0 0 302.54 302.54"><defs><style>.cls-1{fill:none;}.cls-2{clip-path:url(#clip-path);}.cls-3{fill:url(#linear-gradient);}</style><clipPath id="clip-path"><path class="cls-1" d="M266.28,249.47a151.16,151.16,0,0,1-230,0Zm16-22.68H20.22A150.51,150.51,0,0,1,3.85,185.13l41.78.12h4.92c14.53,0,29.46-.37,44.34-4.31,23.77-6.3,43.79-19.36,63.15-32l.43-.28c4.75-3.1,9.4-6,14-7.33,7.24-2.1,14.74-2.37,21.84-2.33H302c.32,4.05.54,8.13.54,12.26A150.52,150.52,0,0,1,282.31,226.79Zm-33.74-42.42a26.53,26.53,0,1,0-26.52,26.53A26.52,26.52,0,0,0,248.57,184.37Zm17.71-131.3a151.16,151.16,0,0,0-230,0ZM0,151.27c0,3.76.18,7.48.45,11.17l45.25.13c14.59,0,29.7.08,43.38-3.54,20.24-5.37,37.89-16.88,56.57-29.07l.43-.28c6-3.91,12.47-7.92,20.07-10.13,10-2.9,19.9-3.17,28.21-3.22H298.43a149.89,149.89,0,0,0-16.12-40.58H20.22A150.48,150.48,0,0,0,0,151.27Z"/></clipPath><linearGradient id="linear-gradient" x1="46.19" y1="918.82" x2="440.25" y2="918.82" gradientTransform="translate(-51.03 -772.19) scale(0.85 1)" gradientUnits="userSpaceOnUse"><stop offset="0.02" stop-color="#5900e9"/><stop offset="0.24" stop-color="#6647ff"/><stop offset="0.73" stop-color="#00dab5"/><stop offset="0.78" stop-color="#3ce3b5"/><stop offset="0.85" stop-color="#8eefb5"/><stop offset="0.92" stop-color="#cbf7b5"/><stop offset="0.96" stop-color="#f1fdb5"/><stop offset="0.99" stop-color="#ffffb5"/></linearGradient></defs><g class="cls-2"><rect class="cls-3" x="-11.83" y="-55.48" width="334.37" height="404.23" transform="translate(-58.19 152.8) rotate(-45)"/></g></svg>